%FSLAX25Y25*%
%MOIN*%
G70*
G01*
G75*
G04 Layer_Color=128*
%ADD10C,0.03937*%
%ADD11R,0.03600X0.03600*%
%ADD12R,0.01969X0.01575*%
%ADD13R,0.02756X0.03543*%
%ADD14R,0.19685X0.13780*%
%ADD15C,0.01000*%
%ADD16C,0.05906*%
%ADD17R,0.05906X0.05906*%
%ADD18C,0.03000*%
%ADD19C,0.00600*%
%ADD20C,0.00787*%
%ADD21C,0.04737*%
%ADD22R,0.04400X0.04400*%
%ADD23R,0.02769X0.02375*%
%ADD24R,0.03556X0.04343*%
%ADD25R,0.20485X0.14579*%
%ADD26C,0.00800*%
%ADD27C,0.06706*%
%ADD28R,0.06706X0.06706*%
D11*
X95713Y76213D02*
D03*
Y81713D02*
D03*
X175713Y76213D02*
D03*
Y81713D02*
D03*
X255713Y76213D02*
D03*
Y81713D02*
D03*
X335713Y76213D02*
D03*
Y81713D02*
D03*
X95713Y156213D02*
D03*
Y161713D02*
D03*
X175713Y156213D02*
D03*
Y161713D02*
D03*
X255713Y156213D02*
D03*
Y161713D02*
D03*
X335713Y156213D02*
D03*
Y161713D02*
D03*
X95713Y236213D02*
D03*
Y241713D02*
D03*
X175713Y236213D02*
D03*
Y241713D02*
D03*
X255713Y236213D02*
D03*
Y241713D02*
D03*
X335713Y236213D02*
D03*
Y241713D02*
D03*
X95713Y316213D02*
D03*
Y321713D02*
D03*
X175713Y316213D02*
D03*
Y321713D02*
D03*
X255713Y316213D02*
D03*
Y321713D02*
D03*
X335713Y316213D02*
D03*
Y321713D02*
D03*
X95713Y396213D02*
D03*
Y401713D02*
D03*
X175713Y396213D02*
D03*
Y401713D02*
D03*
X255713Y396213D02*
D03*
Y401713D02*
D03*
X335713Y396213D02*
D03*
Y401713D02*
D03*
M02*
