%FSLAX25Y25*%
%MOIN*%
G70*
G01*
G75*
G04 Layer_Color=8421504*
%ADD10C,0.03937*%
%ADD11R,0.19685X0.13780*%
%ADD12R,0.02756X0.03543*%
%ADD13R,0.01969X0.01575*%
%ADD14R,0.03600X0.03600*%
%ADD15C,0.01000*%
%ADD16R,0.05906X0.05906*%
%ADD17C,0.05906*%
%ADD18C,0.03000*%
%ADD19C,0.00600*%
%ADD20C,0.00787*%
D10*
X413386Y442913D02*
D03*
X19685D02*
D03*
X413386Y68898D02*
D03*
X19685D02*
D03*
D11*
X113901Y116713D02*
D03*
X88311D02*
D03*
X193902D02*
D03*
X168311D02*
D03*
X273902D02*
D03*
X248311D02*
D03*
X353902D02*
D03*
X328311D02*
D03*
X113901Y196713D02*
D03*
X88311D02*
D03*
X193902D02*
D03*
X168311D02*
D03*
X273902D02*
D03*
X248311D02*
D03*
X353902D02*
D03*
X328311D02*
D03*
X113901Y276713D02*
D03*
X88311D02*
D03*
X193902D02*
D03*
X168311D02*
D03*
X273902D02*
D03*
X248311D02*
D03*
X353902D02*
D03*
X328311D02*
D03*
X113901Y356713D02*
D03*
X88311D02*
D03*
X193902D02*
D03*
X168311D02*
D03*
X273902D02*
D03*
X248311D02*
D03*
X353902D02*
D03*
X328311D02*
D03*
X113901Y436713D02*
D03*
X88311D02*
D03*
X193902D02*
D03*
X168311D02*
D03*
X273902D02*
D03*
X248311D02*
D03*
X353902D02*
D03*
X328311D02*
D03*
D12*
X83713Y94713D02*
D03*
X91193D02*
D03*
X87453Y102587D02*
D03*
X163713Y94713D02*
D03*
X171193D02*
D03*
X167453Y102587D02*
D03*
X243713Y94713D02*
D03*
X251193D02*
D03*
X247453Y102587D02*
D03*
X323713Y94713D02*
D03*
X331193D02*
D03*
X327453Y102587D02*
D03*
X83713Y174713D02*
D03*
X91193D02*
D03*
X87453Y182587D02*
D03*
X163713Y174713D02*
D03*
X171193D02*
D03*
X167453Y182587D02*
D03*
X243713Y174713D02*
D03*
X251193D02*
D03*
X247453Y182587D02*
D03*
X323713Y174713D02*
D03*
X331193D02*
D03*
X327453Y182587D02*
D03*
X83713Y254713D02*
D03*
X91193D02*
D03*
X87453Y262587D02*
D03*
X163713Y254713D02*
D03*
X171193D02*
D03*
X167453Y262587D02*
D03*
X243713Y254713D02*
D03*
X251193D02*
D03*
X247453Y262587D02*
D03*
X323713Y254713D02*
D03*
X331193D02*
D03*
X327453Y262587D02*
D03*
X83713Y334713D02*
D03*
X91193D02*
D03*
X87453Y342587D02*
D03*
X163713Y334713D02*
D03*
X171193D02*
D03*
X167453Y342587D02*
D03*
X243713Y334713D02*
D03*
X251193D02*
D03*
X247453Y342587D02*
D03*
X323713Y334713D02*
D03*
X331193D02*
D03*
X327453Y342587D02*
D03*
X83713Y414713D02*
D03*
X91193D02*
D03*
X87453Y422587D02*
D03*
X163713Y414713D02*
D03*
X171193D02*
D03*
X167453Y422587D02*
D03*
X243713Y414713D02*
D03*
X251193D02*
D03*
X247453Y422587D02*
D03*
X323713Y414713D02*
D03*
X331193D02*
D03*
X327453Y422587D02*
D03*
D13*
X83972Y83153D02*
D03*
X91453Y85713D02*
D03*
Y83153D02*
D03*
Y88272D02*
D03*
X83972D02*
D03*
X163972Y83153D02*
D03*
X171453Y85713D02*
D03*
Y83153D02*
D03*
Y88272D02*
D03*
X163972D02*
D03*
X243972Y83153D02*
D03*
X251453Y85713D02*
D03*
Y83153D02*
D03*
Y88272D02*
D03*
X243972D02*
D03*
X323972Y83153D02*
D03*
X331453Y85713D02*
D03*
Y83153D02*
D03*
Y88272D02*
D03*
X323972D02*
D03*
X83972Y163154D02*
D03*
X91453Y165713D02*
D03*
Y163154D02*
D03*
Y168272D02*
D03*
X83972D02*
D03*
X163972Y163154D02*
D03*
X171453Y165713D02*
D03*
Y163154D02*
D03*
Y168272D02*
D03*
X163972D02*
D03*
X243972Y163154D02*
D03*
X251453Y165713D02*
D03*
Y163154D02*
D03*
Y168272D02*
D03*
X243972D02*
D03*
X323972Y163154D02*
D03*
X331453Y165713D02*
D03*
Y163154D02*
D03*
Y168272D02*
D03*
X323972D02*
D03*
X83972Y243154D02*
D03*
X91453Y245713D02*
D03*
Y243154D02*
D03*
Y248272D02*
D03*
X83972D02*
D03*
X163972Y243154D02*
D03*
X171453Y245713D02*
D03*
Y243154D02*
D03*
Y248272D02*
D03*
X163972D02*
D03*
X243972Y243154D02*
D03*
X251453Y245713D02*
D03*
Y243154D02*
D03*
Y248272D02*
D03*
X243972D02*
D03*
X323972Y243154D02*
D03*
X331453Y245713D02*
D03*
Y243154D02*
D03*
Y248272D02*
D03*
X323972D02*
D03*
X83972Y323153D02*
D03*
X91453Y325713D02*
D03*
Y323153D02*
D03*
Y328272D02*
D03*
X83972D02*
D03*
X163972Y323153D02*
D03*
X171453Y325713D02*
D03*
Y323153D02*
D03*
Y328272D02*
D03*
X163972D02*
D03*
X243972Y323153D02*
D03*
X251453Y325713D02*
D03*
Y323153D02*
D03*
Y328272D02*
D03*
X243972D02*
D03*
X323972Y323153D02*
D03*
X331453Y325713D02*
D03*
Y323153D02*
D03*
Y328272D02*
D03*
X323972D02*
D03*
X83972Y403154D02*
D03*
X91453Y405713D02*
D03*
Y403154D02*
D03*
Y408272D02*
D03*
X83972D02*
D03*
X163972Y403154D02*
D03*
X171453Y405713D02*
D03*
Y403154D02*
D03*
Y408272D02*
D03*
X163972D02*
D03*
X243972Y403154D02*
D03*
X251453Y405713D02*
D03*
Y403154D02*
D03*
Y408272D02*
D03*
X243972D02*
D03*
X323972Y403154D02*
D03*
X331453Y405713D02*
D03*
Y403154D02*
D03*
Y408272D02*
D03*
X323972D02*
D03*
D14*
X89713Y68713D02*
D03*
Y74213D02*
D03*
X84213Y68713D02*
D03*
Y74213D02*
D03*
X108213Y74759D02*
D03*
Y80259D02*
D03*
X121213Y94759D02*
D03*
Y100259D02*
D03*
X114713Y94759D02*
D03*
Y100259D02*
D03*
X108213Y94759D02*
D03*
Y100259D02*
D03*
X101213Y94759D02*
D03*
Y100259D02*
D03*
X121213Y74759D02*
D03*
Y80259D02*
D03*
X114713Y74759D02*
D03*
Y80259D02*
D03*
X101213Y74759D02*
D03*
Y80259D02*
D03*
X169713Y68713D02*
D03*
Y74213D02*
D03*
X164213Y68713D02*
D03*
Y74213D02*
D03*
X188213Y74759D02*
D03*
Y80259D02*
D03*
X201213Y94759D02*
D03*
Y100259D02*
D03*
X194713Y94759D02*
D03*
Y100259D02*
D03*
X188213Y94759D02*
D03*
Y100259D02*
D03*
X181213Y94759D02*
D03*
Y100259D02*
D03*
X201213Y74759D02*
D03*
Y80259D02*
D03*
X194713Y74759D02*
D03*
Y80259D02*
D03*
X181213Y74759D02*
D03*
Y80259D02*
D03*
X249713Y68713D02*
D03*
Y74213D02*
D03*
X244213Y68713D02*
D03*
Y74213D02*
D03*
X268213Y74759D02*
D03*
Y80259D02*
D03*
X281213Y94759D02*
D03*
Y100259D02*
D03*
X274713Y94759D02*
D03*
Y100259D02*
D03*
X268213Y94759D02*
D03*
Y100259D02*
D03*
X261213Y94759D02*
D03*
Y100259D02*
D03*
X281213Y74759D02*
D03*
Y80259D02*
D03*
X274713Y74759D02*
D03*
Y80259D02*
D03*
X261213Y74759D02*
D03*
Y80259D02*
D03*
X329713Y68713D02*
D03*
Y74213D02*
D03*
X324213Y68713D02*
D03*
Y74213D02*
D03*
X348213Y74759D02*
D03*
Y80259D02*
D03*
X361213Y94759D02*
D03*
Y100259D02*
D03*
X354713Y94759D02*
D03*
Y100259D02*
D03*
X348213Y94759D02*
D03*
Y100259D02*
D03*
X341213Y94759D02*
D03*
Y100259D02*
D03*
X361213Y74759D02*
D03*
Y80259D02*
D03*
X354713Y74759D02*
D03*
Y80259D02*
D03*
X341213Y74759D02*
D03*
Y80259D02*
D03*
X89713Y148713D02*
D03*
Y154213D02*
D03*
X84213Y148713D02*
D03*
Y154213D02*
D03*
X108213Y154759D02*
D03*
Y160259D02*
D03*
X121213Y174759D02*
D03*
Y180259D02*
D03*
X114713Y174759D02*
D03*
Y180259D02*
D03*
X108213Y174759D02*
D03*
Y180259D02*
D03*
X101213Y174759D02*
D03*
Y180259D02*
D03*
X121213Y154759D02*
D03*
Y160259D02*
D03*
X114713Y154759D02*
D03*
Y160259D02*
D03*
X101213Y154759D02*
D03*
Y160259D02*
D03*
X169713Y148713D02*
D03*
Y154213D02*
D03*
X164213Y148713D02*
D03*
Y154213D02*
D03*
X188213Y154759D02*
D03*
Y160259D02*
D03*
X201213Y174759D02*
D03*
Y180259D02*
D03*
X194713Y174759D02*
D03*
Y180259D02*
D03*
X188213Y174759D02*
D03*
Y180259D02*
D03*
X181213Y174759D02*
D03*
Y180259D02*
D03*
X201213Y154759D02*
D03*
Y160259D02*
D03*
X194713Y154759D02*
D03*
Y160259D02*
D03*
X181213Y154759D02*
D03*
Y160259D02*
D03*
X249713Y148713D02*
D03*
Y154213D02*
D03*
X244213Y148713D02*
D03*
Y154213D02*
D03*
X268213Y154759D02*
D03*
Y160259D02*
D03*
X281213Y174759D02*
D03*
Y180259D02*
D03*
X274713Y174759D02*
D03*
Y180259D02*
D03*
X268213Y174759D02*
D03*
Y180259D02*
D03*
X261213Y174759D02*
D03*
Y180259D02*
D03*
X281213Y154759D02*
D03*
Y160259D02*
D03*
X274713Y154759D02*
D03*
Y160259D02*
D03*
X261213Y154759D02*
D03*
Y160259D02*
D03*
X329713Y148713D02*
D03*
Y154213D02*
D03*
X324213Y148713D02*
D03*
Y154213D02*
D03*
X348213Y154759D02*
D03*
Y160259D02*
D03*
X361213Y174759D02*
D03*
Y180259D02*
D03*
X354713Y174759D02*
D03*
Y180259D02*
D03*
X348213Y174759D02*
D03*
Y180259D02*
D03*
X341213Y174759D02*
D03*
Y180259D02*
D03*
X361213Y154759D02*
D03*
Y160259D02*
D03*
X354713Y154759D02*
D03*
Y160259D02*
D03*
X341213Y154759D02*
D03*
Y160259D02*
D03*
X89713Y228713D02*
D03*
Y234213D02*
D03*
X84213Y228713D02*
D03*
Y234213D02*
D03*
X108213Y234759D02*
D03*
Y240259D02*
D03*
X121213Y254759D02*
D03*
Y260259D02*
D03*
X114713Y254759D02*
D03*
Y260259D02*
D03*
X108213Y254759D02*
D03*
Y260259D02*
D03*
X101213Y254759D02*
D03*
Y260259D02*
D03*
X121213Y234759D02*
D03*
Y240259D02*
D03*
X114713Y234759D02*
D03*
Y240259D02*
D03*
X101213Y234759D02*
D03*
Y240259D02*
D03*
X169713Y228713D02*
D03*
Y234213D02*
D03*
X164213Y228713D02*
D03*
Y234213D02*
D03*
X188213Y234759D02*
D03*
Y240259D02*
D03*
X201213Y254759D02*
D03*
Y260259D02*
D03*
X194713Y254759D02*
D03*
Y260259D02*
D03*
X188213Y254759D02*
D03*
Y260259D02*
D03*
X181213Y254759D02*
D03*
Y260259D02*
D03*
X201213Y234759D02*
D03*
Y240259D02*
D03*
X194713Y234759D02*
D03*
Y240259D02*
D03*
X181213Y234759D02*
D03*
Y240259D02*
D03*
X249713Y228713D02*
D03*
Y234213D02*
D03*
X244213Y228713D02*
D03*
Y234213D02*
D03*
X268213Y234759D02*
D03*
Y240259D02*
D03*
X281213Y254759D02*
D03*
Y260259D02*
D03*
X274713Y254759D02*
D03*
Y260259D02*
D03*
X268213Y254759D02*
D03*
Y260259D02*
D03*
X261213Y254759D02*
D03*
Y260259D02*
D03*
X281213Y234759D02*
D03*
Y240259D02*
D03*
X274713Y234759D02*
D03*
Y240259D02*
D03*
X261213Y234759D02*
D03*
Y240259D02*
D03*
X329713Y228713D02*
D03*
Y234213D02*
D03*
X324213Y228713D02*
D03*
Y234213D02*
D03*
X348213Y234759D02*
D03*
Y240259D02*
D03*
X361213Y254759D02*
D03*
Y260259D02*
D03*
X354713Y254759D02*
D03*
Y260259D02*
D03*
X348213Y254759D02*
D03*
Y260259D02*
D03*
X341213Y254759D02*
D03*
Y260259D02*
D03*
X361213Y234759D02*
D03*
Y240259D02*
D03*
X354713Y234759D02*
D03*
Y240259D02*
D03*
X341213Y234759D02*
D03*
Y240259D02*
D03*
X89713Y308713D02*
D03*
Y314213D02*
D03*
X84213Y308713D02*
D03*
Y314213D02*
D03*
X108213Y314759D02*
D03*
Y320259D02*
D03*
X121213Y334759D02*
D03*
Y340259D02*
D03*
X114713Y334759D02*
D03*
Y340259D02*
D03*
X108213Y334759D02*
D03*
Y340259D02*
D03*
X101213Y334759D02*
D03*
Y340259D02*
D03*
X121213Y314759D02*
D03*
Y320259D02*
D03*
X114713Y314759D02*
D03*
Y320259D02*
D03*
X101213Y314759D02*
D03*
Y320259D02*
D03*
X169713Y308713D02*
D03*
Y314213D02*
D03*
X164213Y308713D02*
D03*
Y314213D02*
D03*
X188213Y314759D02*
D03*
Y320259D02*
D03*
X201213Y334759D02*
D03*
Y340259D02*
D03*
X194713Y334759D02*
D03*
Y340259D02*
D03*
X188213Y334759D02*
D03*
Y340259D02*
D03*
X181213Y334759D02*
D03*
Y340259D02*
D03*
X201213Y314759D02*
D03*
Y320259D02*
D03*
X194713Y314759D02*
D03*
Y320259D02*
D03*
X181213Y314759D02*
D03*
Y320259D02*
D03*
X249713Y308713D02*
D03*
Y314213D02*
D03*
X244213Y308713D02*
D03*
Y314213D02*
D03*
X268213Y314759D02*
D03*
Y320259D02*
D03*
X281213Y334759D02*
D03*
Y340259D02*
D03*
X274713Y334759D02*
D03*
Y340259D02*
D03*
X268213Y334759D02*
D03*
Y340259D02*
D03*
X261213Y334759D02*
D03*
Y340259D02*
D03*
X281213Y314759D02*
D03*
Y320259D02*
D03*
X274713Y314759D02*
D03*
Y320259D02*
D03*
X261213Y314759D02*
D03*
Y320259D02*
D03*
X329713Y308713D02*
D03*
Y314213D02*
D03*
X324213Y308713D02*
D03*
Y314213D02*
D03*
X348213Y314759D02*
D03*
Y320259D02*
D03*
X361213Y334759D02*
D03*
Y340259D02*
D03*
X354713Y334759D02*
D03*
Y340259D02*
D03*
X348213Y334759D02*
D03*
Y340259D02*
D03*
X341213Y334759D02*
D03*
Y340259D02*
D03*
X361213Y314759D02*
D03*
Y320259D02*
D03*
X354713Y314759D02*
D03*
Y320259D02*
D03*
X341213Y314759D02*
D03*
Y320259D02*
D03*
X89713Y388713D02*
D03*
Y394213D02*
D03*
X84213Y388713D02*
D03*
Y394213D02*
D03*
X108213Y394759D02*
D03*
Y400259D02*
D03*
X121213Y414759D02*
D03*
Y420259D02*
D03*
X114713Y414759D02*
D03*
Y420259D02*
D03*
X108213Y414759D02*
D03*
Y420259D02*
D03*
X101213Y414759D02*
D03*
Y420259D02*
D03*
X121213Y394759D02*
D03*
Y400259D02*
D03*
X114713Y394759D02*
D03*
Y400259D02*
D03*
X101213Y394759D02*
D03*
Y400259D02*
D03*
X169713Y388713D02*
D03*
Y394213D02*
D03*
X164213Y388713D02*
D03*
Y394213D02*
D03*
X188213Y394759D02*
D03*
Y400259D02*
D03*
X201213Y414759D02*
D03*
Y420259D02*
D03*
X194713Y414759D02*
D03*
Y420259D02*
D03*
X188213Y414759D02*
D03*
Y420259D02*
D03*
X181213Y414759D02*
D03*
Y420259D02*
D03*
X201213Y394759D02*
D03*
Y400259D02*
D03*
X194713Y394759D02*
D03*
Y400259D02*
D03*
X181213Y394759D02*
D03*
Y400259D02*
D03*
X249713Y388713D02*
D03*
Y394213D02*
D03*
X244213Y388713D02*
D03*
Y394213D02*
D03*
X268213Y394759D02*
D03*
Y400259D02*
D03*
X281213Y414759D02*
D03*
Y420259D02*
D03*
X274713Y414759D02*
D03*
Y420259D02*
D03*
X268213Y414759D02*
D03*
Y420259D02*
D03*
X261213Y414759D02*
D03*
Y420259D02*
D03*
X281213Y394759D02*
D03*
Y400259D02*
D03*
X274713Y394759D02*
D03*
Y400259D02*
D03*
X261213Y394759D02*
D03*
Y400259D02*
D03*
X329713Y388713D02*
D03*
Y394213D02*
D03*
X324213Y388713D02*
D03*
Y394213D02*
D03*
X348213Y394759D02*
D03*
Y400259D02*
D03*
X361213Y414759D02*
D03*
Y420259D02*
D03*
X354713Y414759D02*
D03*
Y420259D02*
D03*
X348213Y414759D02*
D03*
Y420259D02*
D03*
X341213Y414759D02*
D03*
Y420259D02*
D03*
X361213Y394759D02*
D03*
Y400259D02*
D03*
X354713Y394759D02*
D03*
Y400259D02*
D03*
X341213Y394759D02*
D03*
Y400259D02*
D03*
M02*
