%FSLAX25Y25*%
%MOIN*%
G70*
G01*
G75*
G04 Layer_Physical_Order=1*
G04 Layer_Color=255*
%ADD10C,0.03937*%
%ADD11R,0.19685X0.13780*%
%ADD12R,0.02756X0.03543*%
%ADD13R,0.01969X0.01575*%
%ADD14R,0.03600X0.03600*%
%ADD15C,0.01000*%
%ADD16R,0.05906X0.05906*%
%ADD17C,0.05906*%
%ADD18C,0.03000*%
G36*
X85213Y87213D02*
X82213D01*
Y96713D01*
X85213D01*
Y87213D01*
D02*
G37*
G36*
X124713Y77713D02*
X97713D01*
X91713Y71713D01*
X81713D01*
X80713Y70713D01*
Y66713D01*
X66713D01*
Y74713D01*
X67713Y75713D01*
X74713D01*
X83213Y84213D01*
X89868D01*
Y81766D01*
X93037D01*
Y84213D01*
X93213D01*
X93519Y84519D01*
X94017Y84470D01*
X94199Y84199D01*
X94893Y83734D01*
X95713Y83571D01*
X96532Y83734D01*
X97227Y84199D01*
X97691Y84893D01*
X97854Y85713D01*
X97691Y86532D01*
X97227Y87227D01*
X97005Y87374D01*
X97172Y87753D01*
X97172D01*
D01*
Y87753D01*
X97172D01*
D01*
X98022Y88604D01*
X98213Y89063D01*
Y96713D01*
X124713D01*
Y77713D01*
D02*
G37*
G36*
Y66713D02*
X81713D01*
Y70713D01*
X92213D01*
X98213Y76713D01*
X124713D01*
Y66713D01*
D02*
G37*
G36*
X97713Y107213D02*
X90713Y100213D01*
X85713D01*
X78713Y107213D01*
Y108713D01*
Y110713D01*
X97713D01*
Y107213D01*
D02*
G37*
G36*
X124713Y97713D02*
X98713D01*
Y103713D01*
X102713Y107713D01*
Y124713D01*
X124713D01*
Y97713D01*
D02*
G37*
G36*
X97563Y89063D02*
X96713Y88213D01*
X94213D01*
X93213Y87213D01*
X89213D01*
Y96713D01*
X97563D01*
Y89063D01*
D02*
G37*
G36*
X165213Y87213D02*
X162213D01*
Y96713D01*
X165213D01*
Y87213D01*
D02*
G37*
G36*
X204713Y77713D02*
X177713D01*
X171713Y71713D01*
X161713D01*
X160713Y70713D01*
Y66713D01*
X146713D01*
Y74713D01*
X147713Y75713D01*
X154713D01*
X163213Y84213D01*
X169869D01*
Y81766D01*
X173037D01*
Y84213D01*
X173213D01*
X173519Y84519D01*
X174017Y84470D01*
X174199Y84199D01*
X174893Y83734D01*
X175713Y83571D01*
X176532Y83734D01*
X177227Y84199D01*
X177691Y84893D01*
X177854Y85713D01*
X177691Y86532D01*
X177227Y87227D01*
X177006Y87374D01*
X177172Y87753D01*
X177172D01*
D01*
Y87753D01*
X177172D01*
D01*
X178022Y88604D01*
X178213Y89063D01*
Y96713D01*
X204713D01*
Y77713D01*
D02*
G37*
G36*
Y66713D02*
X161713D01*
Y70713D01*
X172213D01*
X178213Y76713D01*
X204713D01*
Y66713D01*
D02*
G37*
G36*
X177713Y107213D02*
X170713Y100213D01*
X165713D01*
X158713Y107213D01*
Y108713D01*
Y110713D01*
X177713D01*
Y107213D01*
D02*
G37*
G36*
X204713Y97713D02*
X178713D01*
Y103713D01*
X182713Y107713D01*
Y124713D01*
X204713D01*
Y97713D01*
D02*
G37*
G36*
X177563Y89063D02*
X176713Y88213D01*
X174213D01*
X173213Y87213D01*
X169213D01*
Y96713D01*
X177563D01*
Y89063D01*
D02*
G37*
G36*
X245213Y87213D02*
X242213D01*
Y96713D01*
X245213D01*
Y87213D01*
D02*
G37*
G36*
X284713Y77713D02*
X257713D01*
X251713Y71713D01*
X241713D01*
X240713Y70713D01*
Y66713D01*
X226713D01*
Y74713D01*
X227713Y75713D01*
X234713D01*
X243213Y84213D01*
X249868D01*
Y81766D01*
X253037D01*
Y84213D01*
X253213D01*
X253519Y84519D01*
X254017Y84470D01*
X254199Y84199D01*
X254893Y83734D01*
X255713Y83571D01*
X256532Y83734D01*
X257227Y84199D01*
X257691Y84893D01*
X257854Y85713D01*
X257691Y86532D01*
X257227Y87227D01*
X257006Y87374D01*
X257172Y87753D01*
X257172D01*
D01*
Y87753D01*
X257172D01*
D01*
X258022Y88604D01*
X258213Y89063D01*
Y96713D01*
X284713D01*
Y77713D01*
D02*
G37*
G36*
Y66713D02*
X241713D01*
Y70713D01*
X252213D01*
X258213Y76713D01*
X284713D01*
Y66713D01*
D02*
G37*
G36*
X257713Y107213D02*
X250713Y100213D01*
X245713D01*
X238713Y107213D01*
Y108713D01*
Y110713D01*
X257713D01*
Y107213D01*
D02*
G37*
G36*
X284713Y97713D02*
X258713D01*
Y103713D01*
X262713Y107713D01*
Y124713D01*
X284713D01*
Y97713D01*
D02*
G37*
G36*
X257563Y89063D02*
X256713Y88213D01*
X254213D01*
X253213Y87213D01*
X249213D01*
Y96713D01*
X257563D01*
Y89063D01*
D02*
G37*
G36*
X325213Y87213D02*
X322213D01*
Y96713D01*
X325213D01*
Y87213D01*
D02*
G37*
G36*
X364713Y77713D02*
X337713D01*
X331713Y71713D01*
X321713D01*
X320713Y70713D01*
Y66713D01*
X306713D01*
Y74713D01*
X307713Y75713D01*
X314713D01*
X323213Y84213D01*
X329869D01*
Y81766D01*
X333037D01*
Y84213D01*
X333213D01*
X333519Y84519D01*
X334017Y84470D01*
X334199Y84199D01*
X334893Y83734D01*
X335713Y83571D01*
X336532Y83734D01*
X337227Y84199D01*
X337691Y84893D01*
X337854Y85713D01*
X337691Y86532D01*
X337227Y87227D01*
X337005Y87374D01*
X337172Y87753D01*
X337172D01*
D01*
Y87753D01*
X337172D01*
D01*
X338022Y88604D01*
X338213Y89063D01*
Y96713D01*
X364713D01*
Y77713D01*
D02*
G37*
G36*
Y66713D02*
X321713D01*
Y70713D01*
X332213D01*
X338213Y76713D01*
X364713D01*
Y66713D01*
D02*
G37*
G36*
X337713Y107213D02*
X330713Y100213D01*
X325713D01*
X318713Y107213D01*
Y108713D01*
Y110713D01*
X337713D01*
Y107213D01*
D02*
G37*
G36*
X364713Y97713D02*
X338713D01*
Y103713D01*
X342713Y107713D01*
Y124713D01*
X364713D01*
Y97713D01*
D02*
G37*
G36*
X337563Y89063D02*
X336713Y88213D01*
X334213D01*
X333213Y87213D01*
X329213D01*
Y96713D01*
X337563D01*
Y89063D01*
D02*
G37*
G36*
X85213Y167213D02*
X82213D01*
Y176713D01*
X85213D01*
Y167213D01*
D02*
G37*
G36*
X124713Y157713D02*
X97713D01*
X91713Y151713D01*
X81713D01*
X80713Y150713D01*
Y146713D01*
X66713D01*
Y154713D01*
X67713Y155713D01*
X74713D01*
X83213Y164213D01*
X89868D01*
Y161766D01*
X93037D01*
Y164213D01*
X93213D01*
X93519Y164519D01*
X94017Y164470D01*
X94199Y164199D01*
X94893Y163734D01*
X95713Y163572D01*
X96532Y163734D01*
X97227Y164199D01*
X97691Y164893D01*
X97854Y165713D01*
X97691Y166532D01*
X97227Y167227D01*
X97005Y167374D01*
X97172Y167753D01*
X97172D01*
D01*
Y167753D01*
X97172D01*
D01*
X98022Y168604D01*
X98213Y169063D01*
Y176713D01*
X124713D01*
Y157713D01*
D02*
G37*
G36*
Y146713D02*
X81713D01*
Y150713D01*
X92213D01*
X98213Y156713D01*
X124713D01*
Y146713D01*
D02*
G37*
G36*
X97713Y187213D02*
X90713Y180213D01*
X85713D01*
X78713Y187213D01*
Y188713D01*
Y190713D01*
X97713D01*
Y187213D01*
D02*
G37*
G36*
X124713Y177713D02*
X98713D01*
Y183713D01*
X102713Y187713D01*
Y204713D01*
X124713D01*
Y177713D01*
D02*
G37*
G36*
X97563Y169063D02*
X96713Y168213D01*
X94213D01*
X93213Y167213D01*
X89213D01*
Y176713D01*
X97563D01*
Y169063D01*
D02*
G37*
G36*
X165213Y167213D02*
X162213D01*
Y176713D01*
X165213D01*
Y167213D01*
D02*
G37*
G36*
X204713Y157713D02*
X177713D01*
X171713Y151713D01*
X161713D01*
X160713Y150713D01*
Y146713D01*
X146713D01*
Y154713D01*
X147713Y155713D01*
X154713D01*
X163213Y164213D01*
X169869D01*
Y161766D01*
X173037D01*
Y164213D01*
X173213D01*
X173519Y164519D01*
X174017Y164470D01*
X174199Y164199D01*
X174893Y163734D01*
X175713Y163572D01*
X176532Y163734D01*
X177227Y164199D01*
X177691Y164893D01*
X177854Y165713D01*
X177691Y166532D01*
X177227Y167227D01*
X177006Y167374D01*
X177172Y167753D01*
X177172D01*
D01*
Y167753D01*
X177172D01*
D01*
X178022Y168604D01*
X178213Y169063D01*
Y176713D01*
X204713D01*
Y157713D01*
D02*
G37*
G36*
Y146713D02*
X161713D01*
Y150713D01*
X172213D01*
X178213Y156713D01*
X204713D01*
Y146713D01*
D02*
G37*
G36*
X177713Y187213D02*
X170713Y180213D01*
X165713D01*
X158713Y187213D01*
Y188713D01*
Y190713D01*
X177713D01*
Y187213D01*
D02*
G37*
G36*
X204713Y177713D02*
X178713D01*
Y183713D01*
X182713Y187713D01*
Y204713D01*
X204713D01*
Y177713D01*
D02*
G37*
G36*
X177563Y169063D02*
X176713Y168213D01*
X174213D01*
X173213Y167213D01*
X169213D01*
Y176713D01*
X177563D01*
Y169063D01*
D02*
G37*
G36*
X245213Y167213D02*
X242213D01*
Y176713D01*
X245213D01*
Y167213D01*
D02*
G37*
G36*
X284713Y157713D02*
X257713D01*
X251713Y151713D01*
X241713D01*
X240713Y150713D01*
Y146713D01*
X226713D01*
Y154713D01*
X227713Y155713D01*
X234713D01*
X243213Y164213D01*
X249868D01*
Y161766D01*
X253037D01*
Y164213D01*
X253213D01*
X253519Y164519D01*
X254017Y164470D01*
X254199Y164199D01*
X254893Y163734D01*
X255713Y163572D01*
X256532Y163734D01*
X257227Y164199D01*
X257691Y164893D01*
X257854Y165713D01*
X257691Y166532D01*
X257227Y167227D01*
X257006Y167374D01*
X257172Y167753D01*
X257172D01*
D01*
Y167753D01*
X257172D01*
D01*
X258022Y168604D01*
X258213Y169063D01*
Y176713D01*
X284713D01*
Y157713D01*
D02*
G37*
G36*
Y146713D02*
X241713D01*
Y150713D01*
X252213D01*
X258213Y156713D01*
X284713D01*
Y146713D01*
D02*
G37*
G36*
X257713Y187213D02*
X250713Y180213D01*
X245713D01*
X238713Y187213D01*
Y188713D01*
Y190713D01*
X257713D01*
Y187213D01*
D02*
G37*
G36*
X284713Y177713D02*
X258713D01*
Y183713D01*
X262713Y187713D01*
Y204713D01*
X284713D01*
Y177713D01*
D02*
G37*
G36*
X257563Y169063D02*
X256713Y168213D01*
X254213D01*
X253213Y167213D01*
X249213D01*
Y176713D01*
X257563D01*
Y169063D01*
D02*
G37*
G36*
X325213Y167213D02*
X322213D01*
Y176713D01*
X325213D01*
Y167213D01*
D02*
G37*
G36*
X364713Y157713D02*
X337713D01*
X331713Y151713D01*
X321713D01*
X320713Y150713D01*
Y146713D01*
X306713D01*
Y154713D01*
X307713Y155713D01*
X314713D01*
X323213Y164213D01*
X329869D01*
Y161766D01*
X333037D01*
Y164213D01*
X333213D01*
X333519Y164519D01*
X334017Y164470D01*
X334199Y164199D01*
X334893Y163734D01*
X335713Y163572D01*
X336532Y163734D01*
X337227Y164199D01*
X337691Y164893D01*
X337854Y165713D01*
X337691Y166532D01*
X337227Y167227D01*
X337005Y167374D01*
X337172Y167753D01*
X337172D01*
D01*
Y167753D01*
X337172D01*
D01*
X338022Y168604D01*
X338213Y169063D01*
Y176713D01*
X364713D01*
Y157713D01*
D02*
G37*
G36*
Y146713D02*
X321713D01*
Y150713D01*
X332213D01*
X338213Y156713D01*
X364713D01*
Y146713D01*
D02*
G37*
G36*
X337713Y187213D02*
X330713Y180213D01*
X325713D01*
X318713Y187213D01*
Y188713D01*
Y190713D01*
X337713D01*
Y187213D01*
D02*
G37*
G36*
X364713Y177713D02*
X338713D01*
Y183713D01*
X342713Y187713D01*
Y204713D01*
X364713D01*
Y177713D01*
D02*
G37*
G36*
X337563Y169063D02*
X336713Y168213D01*
X334213D01*
X333213Y167213D01*
X329213D01*
Y176713D01*
X337563D01*
Y169063D01*
D02*
G37*
G36*
X85213Y247213D02*
X82213D01*
Y256713D01*
X85213D01*
Y247213D01*
D02*
G37*
G36*
X124713Y237713D02*
X97713D01*
X91713Y231713D01*
X81713D01*
X80713Y230713D01*
Y226713D01*
X66713D01*
Y234713D01*
X67713Y235713D01*
X74713D01*
X83213Y244213D01*
X89868D01*
Y241766D01*
X93037D01*
Y244213D01*
X93213D01*
X93519Y244519D01*
X94017Y244470D01*
X94199Y244199D01*
X94893Y243734D01*
X95713Y243571D01*
X96532Y243734D01*
X97227Y244199D01*
X97691Y244893D01*
X97854Y245713D01*
X97691Y246532D01*
X97227Y247227D01*
X97005Y247374D01*
X97172Y247753D01*
X97172D01*
D01*
Y247753D01*
X97172D01*
D01*
X98022Y248604D01*
X98213Y249063D01*
Y256713D01*
X124713D01*
Y237713D01*
D02*
G37*
G36*
Y226713D02*
X81713D01*
Y230713D01*
X92213D01*
X98213Y236713D01*
X124713D01*
Y226713D01*
D02*
G37*
G36*
X97713Y267213D02*
X90713Y260213D01*
X85713D01*
X78713Y267213D01*
Y268713D01*
Y270713D01*
X97713D01*
Y267213D01*
D02*
G37*
G36*
X124713Y257713D02*
X98713D01*
Y263713D01*
X102713Y267713D01*
Y284713D01*
X124713D01*
Y257713D01*
D02*
G37*
G36*
X97563Y249063D02*
X96713Y248213D01*
X94213D01*
X93213Y247213D01*
X89213D01*
Y256713D01*
X97563D01*
Y249063D01*
D02*
G37*
G36*
X165213Y247213D02*
X162213D01*
Y256713D01*
X165213D01*
Y247213D01*
D02*
G37*
G36*
X204713Y237713D02*
X177713D01*
X171713Y231713D01*
X161713D01*
X160713Y230713D01*
Y226713D01*
X146713D01*
Y234713D01*
X147713Y235713D01*
X154713D01*
X163213Y244213D01*
X169869D01*
Y241766D01*
X173037D01*
Y244213D01*
X173213D01*
X173519Y244519D01*
X174017Y244470D01*
X174199Y244199D01*
X174893Y243734D01*
X175713Y243571D01*
X176532Y243734D01*
X177227Y244199D01*
X177691Y244893D01*
X177854Y245713D01*
X177691Y246532D01*
X177227Y247227D01*
X177006Y247374D01*
X177172Y247753D01*
X177172D01*
D01*
Y247753D01*
X177172D01*
D01*
X178022Y248604D01*
X178213Y249063D01*
Y256713D01*
X204713D01*
Y237713D01*
D02*
G37*
G36*
Y226713D02*
X161713D01*
Y230713D01*
X172213D01*
X178213Y236713D01*
X204713D01*
Y226713D01*
D02*
G37*
G36*
X177713Y267213D02*
X170713Y260213D01*
X165713D01*
X158713Y267213D01*
Y268713D01*
Y270713D01*
X177713D01*
Y267213D01*
D02*
G37*
G36*
X204713Y257713D02*
X178713D01*
Y263713D01*
X182713Y267713D01*
Y284713D01*
X204713D01*
Y257713D01*
D02*
G37*
G36*
X177563Y249063D02*
X176713Y248213D01*
X174213D01*
X173213Y247213D01*
X169213D01*
Y256713D01*
X177563D01*
Y249063D01*
D02*
G37*
G36*
X245213Y247213D02*
X242213D01*
Y256713D01*
X245213D01*
Y247213D01*
D02*
G37*
G36*
X284713Y237713D02*
X257713D01*
X251713Y231713D01*
X241713D01*
X240713Y230713D01*
Y226713D01*
X226713D01*
Y234713D01*
X227713Y235713D01*
X234713D01*
X243213Y244213D01*
X249868D01*
Y241766D01*
X253037D01*
Y244213D01*
X253213D01*
X253519Y244519D01*
X254017Y244470D01*
X254199Y244199D01*
X254893Y243734D01*
X255713Y243571D01*
X256532Y243734D01*
X257227Y244199D01*
X257691Y244893D01*
X257854Y245713D01*
X257691Y246532D01*
X257227Y247227D01*
X257006Y247374D01*
X257172Y247753D01*
X257172D01*
D01*
Y247753D01*
X257172D01*
D01*
X258022Y248604D01*
X258213Y249063D01*
Y256713D01*
X284713D01*
Y237713D01*
D02*
G37*
G36*
Y226713D02*
X241713D01*
Y230713D01*
X252213D01*
X258213Y236713D01*
X284713D01*
Y226713D01*
D02*
G37*
G36*
X257713Y267213D02*
X250713Y260213D01*
X245713D01*
X238713Y267213D01*
Y268713D01*
Y270713D01*
X257713D01*
Y267213D01*
D02*
G37*
G36*
X284713Y257713D02*
X258713D01*
Y263713D01*
X262713Y267713D01*
Y284713D01*
X284713D01*
Y257713D01*
D02*
G37*
G36*
X257563Y249063D02*
X256713Y248213D01*
X254213D01*
X253213Y247213D01*
X249213D01*
Y256713D01*
X257563D01*
Y249063D01*
D02*
G37*
G36*
X325213Y247213D02*
X322213D01*
Y256713D01*
X325213D01*
Y247213D01*
D02*
G37*
G36*
X364713Y237713D02*
X337713D01*
X331713Y231713D01*
X321713D01*
X320713Y230713D01*
Y226713D01*
X306713D01*
Y234713D01*
X307713Y235713D01*
X314713D01*
X323213Y244213D01*
X329869D01*
Y241766D01*
X333037D01*
Y244213D01*
X333213D01*
X333519Y244519D01*
X334017Y244470D01*
X334199Y244199D01*
X334893Y243734D01*
X335713Y243571D01*
X336532Y243734D01*
X337227Y244199D01*
X337691Y244893D01*
X337854Y245713D01*
X337691Y246532D01*
X337227Y247227D01*
X337005Y247374D01*
X337172Y247753D01*
X337172D01*
D01*
Y247753D01*
X337172D01*
D01*
X338022Y248604D01*
X338213Y249063D01*
Y256713D01*
X364713D01*
Y237713D01*
D02*
G37*
G36*
Y226713D02*
X321713D01*
Y230713D01*
X332213D01*
X338213Y236713D01*
X364713D01*
Y226713D01*
D02*
G37*
G36*
X337713Y267213D02*
X330713Y260213D01*
X325713D01*
X318713Y267213D01*
Y268713D01*
Y270713D01*
X337713D01*
Y267213D01*
D02*
G37*
G36*
X364713Y257713D02*
X338713D01*
Y263713D01*
X342713Y267713D01*
Y284713D01*
X364713D01*
Y257713D01*
D02*
G37*
G36*
X337563Y249063D02*
X336713Y248213D01*
X334213D01*
X333213Y247213D01*
X329213D01*
Y256713D01*
X337563D01*
Y249063D01*
D02*
G37*
G36*
X85213Y327213D02*
X82213D01*
Y336713D01*
X85213D01*
Y327213D01*
D02*
G37*
G36*
X124713Y317713D02*
X97713D01*
X91713Y311713D01*
X81713D01*
X80713Y310713D01*
Y306713D01*
X66713D01*
Y314713D01*
X67713Y315713D01*
X74713D01*
X83213Y324213D01*
X89868D01*
Y321766D01*
X93037D01*
Y324213D01*
X93213D01*
X93519Y324519D01*
X94017Y324470D01*
X94199Y324199D01*
X94893Y323734D01*
X95713Y323571D01*
X96532Y323734D01*
X97227Y324199D01*
X97691Y324893D01*
X97854Y325713D01*
X97691Y326532D01*
X97227Y327227D01*
X97005Y327374D01*
X97172Y327753D01*
X97172D01*
D01*
Y327753D01*
X97172D01*
D01*
X98022Y328604D01*
X98213Y329063D01*
Y336713D01*
X124713D01*
Y317713D01*
D02*
G37*
G36*
Y306713D02*
X81713D01*
Y310713D01*
X92213D01*
X98213Y316713D01*
X124713D01*
Y306713D01*
D02*
G37*
G36*
X97713Y347213D02*
X90713Y340213D01*
X85713D01*
X78713Y347213D01*
Y348713D01*
Y350713D01*
X97713D01*
Y347213D01*
D02*
G37*
G36*
X124713Y337713D02*
X98713D01*
Y343713D01*
X102713Y347713D01*
Y364713D01*
X124713D01*
Y337713D01*
D02*
G37*
G36*
X97563Y329063D02*
X96713Y328213D01*
X94213D01*
X93213Y327213D01*
X89213D01*
Y336713D01*
X97563D01*
Y329063D01*
D02*
G37*
G36*
X165213Y327213D02*
X162213D01*
Y336713D01*
X165213D01*
Y327213D01*
D02*
G37*
G36*
X204713Y317713D02*
X177713D01*
X171713Y311713D01*
X161713D01*
X160713Y310713D01*
Y306713D01*
X146713D01*
Y314713D01*
X147713Y315713D01*
X154713D01*
X163213Y324213D01*
X169869D01*
Y321766D01*
X173037D01*
Y324213D01*
X173213D01*
X173519Y324519D01*
X174017Y324470D01*
X174199Y324199D01*
X174893Y323734D01*
X175713Y323571D01*
X176532Y323734D01*
X177227Y324199D01*
X177691Y324893D01*
X177854Y325713D01*
X177691Y326532D01*
X177227Y327227D01*
X177006Y327374D01*
X177172Y327753D01*
X177172D01*
D01*
Y327753D01*
X177172D01*
D01*
X178022Y328604D01*
X178213Y329063D01*
Y336713D01*
X204713D01*
Y317713D01*
D02*
G37*
G36*
Y306713D02*
X161713D01*
Y310713D01*
X172213D01*
X178213Y316713D01*
X204713D01*
Y306713D01*
D02*
G37*
G36*
X177713Y347213D02*
X170713Y340213D01*
X165713D01*
X158713Y347213D01*
Y348713D01*
Y350713D01*
X177713D01*
Y347213D01*
D02*
G37*
G36*
X204713Y337713D02*
X178713D01*
Y343713D01*
X182713Y347713D01*
Y364713D01*
X204713D01*
Y337713D01*
D02*
G37*
G36*
X177563Y329063D02*
X176713Y328213D01*
X174213D01*
X173213Y327213D01*
X169213D01*
Y336713D01*
X177563D01*
Y329063D01*
D02*
G37*
G36*
X245213Y327213D02*
X242213D01*
Y336713D01*
X245213D01*
Y327213D01*
D02*
G37*
G36*
X284713Y317713D02*
X257713D01*
X251713Y311713D01*
X241713D01*
X240713Y310713D01*
Y306713D01*
X226713D01*
Y314713D01*
X227713Y315713D01*
X234713D01*
X243213Y324213D01*
X249868D01*
Y321766D01*
X253037D01*
Y324213D01*
X253213D01*
X253519Y324519D01*
X254017Y324470D01*
X254199Y324199D01*
X254893Y323734D01*
X255713Y323571D01*
X256532Y323734D01*
X257227Y324199D01*
X257691Y324893D01*
X257854Y325713D01*
X257691Y326532D01*
X257227Y327227D01*
X257006Y327374D01*
X257172Y327753D01*
X257172D01*
D01*
Y327753D01*
X257172D01*
D01*
X258022Y328604D01*
X258213Y329063D01*
Y336713D01*
X284713D01*
Y317713D01*
D02*
G37*
G36*
Y306713D02*
X241713D01*
Y310713D01*
X252213D01*
X258213Y316713D01*
X284713D01*
Y306713D01*
D02*
G37*
G36*
X257713Y347213D02*
X250713Y340213D01*
X245713D01*
X238713Y347213D01*
Y348713D01*
Y350713D01*
X257713D01*
Y347213D01*
D02*
G37*
G36*
X284713Y337713D02*
X258713D01*
Y343713D01*
X262713Y347713D01*
Y364713D01*
X284713D01*
Y337713D01*
D02*
G37*
G36*
X257563Y329063D02*
X256713Y328213D01*
X254213D01*
X253213Y327213D01*
X249213D01*
Y336713D01*
X257563D01*
Y329063D01*
D02*
G37*
G36*
X325213Y327213D02*
X322213D01*
Y336713D01*
X325213D01*
Y327213D01*
D02*
G37*
G36*
X364713Y317713D02*
X337713D01*
X331713Y311713D01*
X321713D01*
X320713Y310713D01*
Y306713D01*
X306713D01*
Y314713D01*
X307713Y315713D01*
X314713D01*
X323213Y324213D01*
X329869D01*
Y321766D01*
X333037D01*
Y324213D01*
X333213D01*
X333519Y324519D01*
X334017Y324470D01*
X334199Y324199D01*
X334893Y323734D01*
X335713Y323571D01*
X336532Y323734D01*
X337227Y324199D01*
X337691Y324893D01*
X337854Y325713D01*
X337691Y326532D01*
X337227Y327227D01*
X337005Y327374D01*
X337172Y327753D01*
X337172D01*
D01*
Y327753D01*
X337172D01*
D01*
X338022Y328604D01*
X338213Y329063D01*
Y336713D01*
X364713D01*
Y317713D01*
D02*
G37*
G36*
Y306713D02*
X321713D01*
Y310713D01*
X332213D01*
X338213Y316713D01*
X364713D01*
Y306713D01*
D02*
G37*
G36*
X337713Y347213D02*
X330713Y340213D01*
X325713D01*
X318713Y347213D01*
Y348713D01*
Y350713D01*
X337713D01*
Y347213D01*
D02*
G37*
G36*
X364713Y337713D02*
X338713D01*
Y343713D01*
X342713Y347713D01*
Y364713D01*
X364713D01*
Y337713D01*
D02*
G37*
G36*
X337563Y329063D02*
X336713Y328213D01*
X334213D01*
X333213Y327213D01*
X329213D01*
Y336713D01*
X337563D01*
Y329063D01*
D02*
G37*
G36*
X85213Y407213D02*
X82213D01*
Y416713D01*
X85213D01*
Y407213D01*
D02*
G37*
G36*
X124713Y397713D02*
X97713D01*
X91713Y391713D01*
X81713D01*
X80713Y390713D01*
Y386713D01*
X66713D01*
Y394713D01*
X67713Y395713D01*
X74713D01*
X83213Y404213D01*
X89868D01*
Y401766D01*
X93037D01*
Y404213D01*
X93213D01*
X93519Y404519D01*
X94017Y404470D01*
X94199Y404199D01*
X94893Y403734D01*
X95713Y403572D01*
X96532Y403734D01*
X97227Y404199D01*
X97691Y404893D01*
X97854Y405713D01*
X97691Y406532D01*
X97227Y407227D01*
X97005Y407374D01*
X97172Y407753D01*
X97172D01*
D01*
Y407753D01*
X97172D01*
D01*
X98022Y408604D01*
X98213Y409063D01*
Y416713D01*
X124713D01*
Y397713D01*
D02*
G37*
G36*
Y386713D02*
X81713D01*
Y390713D01*
X92213D01*
X98213Y396713D01*
X124713D01*
Y386713D01*
D02*
G37*
G36*
X97713Y427213D02*
X90713Y420213D01*
X85713D01*
X78713Y427213D01*
Y428713D01*
Y430713D01*
X97713D01*
Y427213D01*
D02*
G37*
G36*
X124713Y417713D02*
X98713D01*
Y423713D01*
X102713Y427713D01*
Y444713D01*
X124713D01*
Y417713D01*
D02*
G37*
G36*
X97563Y409063D02*
X96713Y408213D01*
X94213D01*
X93213Y407213D01*
X89213D01*
Y416713D01*
X97563D01*
Y409063D01*
D02*
G37*
G36*
X165213Y407213D02*
X162213D01*
Y416713D01*
X165213D01*
Y407213D01*
D02*
G37*
G36*
X204713Y397713D02*
X177713D01*
X171713Y391713D01*
X161713D01*
X160713Y390713D01*
Y386713D01*
X146713D01*
Y394713D01*
X147713Y395713D01*
X154713D01*
X163213Y404213D01*
X169869D01*
Y401766D01*
X173037D01*
Y404213D01*
X173213D01*
X173519Y404519D01*
X174017Y404470D01*
X174199Y404199D01*
X174893Y403734D01*
X175713Y403572D01*
X176532Y403734D01*
X177227Y404199D01*
X177691Y404893D01*
X177854Y405713D01*
X177691Y406532D01*
X177227Y407227D01*
X177006Y407374D01*
X177172Y407753D01*
X177172D01*
D01*
Y407753D01*
X177172D01*
D01*
X178022Y408604D01*
X178213Y409063D01*
Y416713D01*
X204713D01*
Y397713D01*
D02*
G37*
G36*
Y386713D02*
X161713D01*
Y390713D01*
X172213D01*
X178213Y396713D01*
X204713D01*
Y386713D01*
D02*
G37*
G36*
X177713Y427213D02*
X170713Y420213D01*
X165713D01*
X158713Y427213D01*
Y428713D01*
Y430713D01*
X177713D01*
Y427213D01*
D02*
G37*
G36*
X204713Y417713D02*
X178713D01*
Y423713D01*
X182713Y427713D01*
Y444713D01*
X204713D01*
Y417713D01*
D02*
G37*
G36*
X177563Y409063D02*
X176713Y408213D01*
X174213D01*
X173213Y407213D01*
X169213D01*
Y416713D01*
X177563D01*
Y409063D01*
D02*
G37*
G36*
X245213Y407213D02*
X242213D01*
Y416713D01*
X245213D01*
Y407213D01*
D02*
G37*
G36*
X284713Y397713D02*
X257713D01*
X251713Y391713D01*
X241713D01*
X240713Y390713D01*
Y386713D01*
X226713D01*
Y394713D01*
X227713Y395713D01*
X234713D01*
X243213Y404213D01*
X249868D01*
Y401766D01*
X253037D01*
Y404213D01*
X253213D01*
X253519Y404519D01*
X254017Y404470D01*
X254199Y404199D01*
X254893Y403734D01*
X255713Y403572D01*
X256532Y403734D01*
X257227Y404199D01*
X257691Y404893D01*
X257854Y405713D01*
X257691Y406532D01*
X257227Y407227D01*
X257006Y407374D01*
X257172Y407753D01*
X257172D01*
D01*
Y407753D01*
X257172D01*
D01*
X258022Y408604D01*
X258213Y409063D01*
Y416713D01*
X284713D01*
Y397713D01*
D02*
G37*
G36*
Y386713D02*
X241713D01*
Y390713D01*
X252213D01*
X258213Y396713D01*
X284713D01*
Y386713D01*
D02*
G37*
G36*
X257713Y427213D02*
X250713Y420213D01*
X245713D01*
X238713Y427213D01*
Y428713D01*
Y430713D01*
X257713D01*
Y427213D01*
D02*
G37*
G36*
X284713Y417713D02*
X258713D01*
Y423713D01*
X262713Y427713D01*
Y444713D01*
X284713D01*
Y417713D01*
D02*
G37*
G36*
X257563Y409063D02*
X256713Y408213D01*
X254213D01*
X253213Y407213D01*
X249213D01*
Y416713D01*
X257563D01*
Y409063D01*
D02*
G37*
G36*
X325213Y407213D02*
X322213D01*
Y416713D01*
X325213D01*
Y407213D01*
D02*
G37*
G36*
X364713Y397713D02*
X337713D01*
X331713Y391713D01*
X321713D01*
X320713Y390713D01*
Y386713D01*
X306713D01*
Y394713D01*
X307713Y395713D01*
X314713D01*
X323213Y404213D01*
X329869D01*
Y401766D01*
X333037D01*
Y404213D01*
X333213D01*
X333519Y404519D01*
X334017Y404470D01*
X334199Y404199D01*
X334893Y403734D01*
X335713Y403572D01*
X336532Y403734D01*
X337227Y404199D01*
X337691Y404893D01*
X337854Y405713D01*
X337691Y406532D01*
X337227Y407227D01*
X337005Y407374D01*
X337172Y407753D01*
X337172D01*
D01*
Y407753D01*
X337172D01*
D01*
X338022Y408604D01*
X338213Y409063D01*
Y416713D01*
X364713D01*
Y397713D01*
D02*
G37*
G36*
Y386713D02*
X321713D01*
Y390713D01*
X332213D01*
X338213Y396713D01*
X364713D01*
Y386713D01*
D02*
G37*
G36*
X337713Y427213D02*
X330713Y420213D01*
X325713D01*
X318713Y427213D01*
Y428713D01*
Y430713D01*
X337713D01*
Y427213D01*
D02*
G37*
G36*
X364713Y417713D02*
X338713D01*
Y423713D01*
X342713Y427713D01*
Y444713D01*
X364713D01*
Y417713D01*
D02*
G37*
G36*
X337563Y409063D02*
X336713Y408213D01*
X334213D01*
X333213Y407213D01*
X329213D01*
Y416713D01*
X337563D01*
Y409063D01*
D02*
G37*
D10*
X413386Y442913D02*
D03*
X19685D02*
D03*
X413386Y68898D02*
D03*
X19685D02*
D03*
D11*
X113901Y116713D02*
D03*
X88311D02*
D03*
X193902D02*
D03*
X168311D02*
D03*
X273902D02*
D03*
X248311D02*
D03*
X353902D02*
D03*
X328311D02*
D03*
X113901Y196713D02*
D03*
X88311D02*
D03*
X193902D02*
D03*
X168311D02*
D03*
X273902D02*
D03*
X248311D02*
D03*
X353902D02*
D03*
X328311D02*
D03*
X113901Y276713D02*
D03*
X88311D02*
D03*
X193902D02*
D03*
X168311D02*
D03*
X273902D02*
D03*
X248311D02*
D03*
X353902D02*
D03*
X328311D02*
D03*
X113901Y356713D02*
D03*
X88311D02*
D03*
X193902D02*
D03*
X168311D02*
D03*
X273902D02*
D03*
X248311D02*
D03*
X353902D02*
D03*
X328311D02*
D03*
X113901Y436713D02*
D03*
X88311D02*
D03*
X193902D02*
D03*
X168311D02*
D03*
X273902D02*
D03*
X248311D02*
D03*
X353902D02*
D03*
X328311D02*
D03*
D12*
X83713Y94713D02*
D03*
X91193D02*
D03*
X87453Y102587D02*
D03*
X163713Y94713D02*
D03*
X171193D02*
D03*
X167453Y102587D02*
D03*
X243713Y94713D02*
D03*
X251193D02*
D03*
X247453Y102587D02*
D03*
X323713Y94713D02*
D03*
X331193D02*
D03*
X327453Y102587D02*
D03*
X83713Y174713D02*
D03*
X91193D02*
D03*
X87453Y182587D02*
D03*
X163713Y174713D02*
D03*
X171193D02*
D03*
X167453Y182587D02*
D03*
X243713Y174713D02*
D03*
X251193D02*
D03*
X247453Y182587D02*
D03*
X323713Y174713D02*
D03*
X331193D02*
D03*
X327453Y182587D02*
D03*
X83713Y254713D02*
D03*
X91193D02*
D03*
X87453Y262587D02*
D03*
X163713Y254713D02*
D03*
X171193D02*
D03*
X167453Y262587D02*
D03*
X243713Y254713D02*
D03*
X251193D02*
D03*
X247453Y262587D02*
D03*
X323713Y254713D02*
D03*
X331193D02*
D03*
X327453Y262587D02*
D03*
X83713Y334713D02*
D03*
X91193D02*
D03*
X87453Y342587D02*
D03*
X163713Y334713D02*
D03*
X171193D02*
D03*
X167453Y342587D02*
D03*
X243713Y334713D02*
D03*
X251193D02*
D03*
X247453Y342587D02*
D03*
X323713Y334713D02*
D03*
X331193D02*
D03*
X327453Y342587D02*
D03*
X83713Y414713D02*
D03*
X91193D02*
D03*
X87453Y422587D02*
D03*
X163713Y414713D02*
D03*
X171193D02*
D03*
X167453Y422587D02*
D03*
X243713Y414713D02*
D03*
X251193D02*
D03*
X247453Y422587D02*
D03*
X323713Y414713D02*
D03*
X331193D02*
D03*
X327453Y422587D02*
D03*
D13*
X83972Y83153D02*
D03*
X91453Y85713D02*
D03*
Y83153D02*
D03*
Y88272D02*
D03*
X83972D02*
D03*
X163972Y83153D02*
D03*
X171453Y85713D02*
D03*
Y83153D02*
D03*
Y88272D02*
D03*
X163972D02*
D03*
X243972Y83153D02*
D03*
X251453Y85713D02*
D03*
Y83153D02*
D03*
Y88272D02*
D03*
X243972D02*
D03*
X323972Y83153D02*
D03*
X331453Y85713D02*
D03*
Y83153D02*
D03*
Y88272D02*
D03*
X323972D02*
D03*
X83972Y163154D02*
D03*
X91453Y165713D02*
D03*
Y163154D02*
D03*
Y168272D02*
D03*
X83972D02*
D03*
X163972Y163154D02*
D03*
X171453Y165713D02*
D03*
Y163154D02*
D03*
Y168272D02*
D03*
X163972D02*
D03*
X243972Y163154D02*
D03*
X251453Y165713D02*
D03*
Y163154D02*
D03*
Y168272D02*
D03*
X243972D02*
D03*
X323972Y163154D02*
D03*
X331453Y165713D02*
D03*
Y163154D02*
D03*
Y168272D02*
D03*
X323972D02*
D03*
X83972Y243154D02*
D03*
X91453Y245713D02*
D03*
Y243154D02*
D03*
Y248272D02*
D03*
X83972D02*
D03*
X163972Y243154D02*
D03*
X171453Y245713D02*
D03*
Y243154D02*
D03*
Y248272D02*
D03*
X163972D02*
D03*
X243972Y243154D02*
D03*
X251453Y245713D02*
D03*
Y243154D02*
D03*
Y248272D02*
D03*
X243972D02*
D03*
X323972Y243154D02*
D03*
X331453Y245713D02*
D03*
Y243154D02*
D03*
Y248272D02*
D03*
X323972D02*
D03*
X83972Y323153D02*
D03*
X91453Y325713D02*
D03*
Y323153D02*
D03*
Y328272D02*
D03*
X83972D02*
D03*
X163972Y323153D02*
D03*
X171453Y325713D02*
D03*
Y323153D02*
D03*
Y328272D02*
D03*
X163972D02*
D03*
X243972Y323153D02*
D03*
X251453Y325713D02*
D03*
Y323153D02*
D03*
Y328272D02*
D03*
X243972D02*
D03*
X323972Y323153D02*
D03*
X331453Y325713D02*
D03*
Y323153D02*
D03*
Y328272D02*
D03*
X323972D02*
D03*
X83972Y403154D02*
D03*
X91453Y405713D02*
D03*
Y403154D02*
D03*
Y408272D02*
D03*
X83972D02*
D03*
X163972Y403154D02*
D03*
X171453Y405713D02*
D03*
Y403154D02*
D03*
Y408272D02*
D03*
X163972D02*
D03*
X243972Y403154D02*
D03*
X251453Y405713D02*
D03*
Y403154D02*
D03*
Y408272D02*
D03*
X243972D02*
D03*
X323972Y403154D02*
D03*
X331453Y405713D02*
D03*
Y403154D02*
D03*
Y408272D02*
D03*
X323972D02*
D03*
D14*
X89713Y68713D02*
D03*
Y74213D02*
D03*
X84213Y68713D02*
D03*
Y74213D02*
D03*
X108213Y74759D02*
D03*
Y80259D02*
D03*
X121213Y94759D02*
D03*
Y100259D02*
D03*
X114713Y94759D02*
D03*
Y100259D02*
D03*
X108213Y94759D02*
D03*
Y100259D02*
D03*
X101213Y94759D02*
D03*
Y100259D02*
D03*
X121213Y74759D02*
D03*
Y80259D02*
D03*
X114713Y74759D02*
D03*
Y80259D02*
D03*
X101213Y74759D02*
D03*
Y80259D02*
D03*
X169713Y68713D02*
D03*
Y74213D02*
D03*
X164213Y68713D02*
D03*
Y74213D02*
D03*
X188213Y74759D02*
D03*
Y80259D02*
D03*
X201213Y94759D02*
D03*
Y100259D02*
D03*
X194713Y94759D02*
D03*
Y100259D02*
D03*
X188213Y94759D02*
D03*
Y100259D02*
D03*
X181213Y94759D02*
D03*
Y100259D02*
D03*
X201213Y74759D02*
D03*
Y80259D02*
D03*
X194713Y74759D02*
D03*
Y80259D02*
D03*
X181213Y74759D02*
D03*
Y80259D02*
D03*
X249713Y68713D02*
D03*
Y74213D02*
D03*
X244213Y68713D02*
D03*
Y74213D02*
D03*
X268213Y74759D02*
D03*
Y80259D02*
D03*
X281213Y94759D02*
D03*
Y100259D02*
D03*
X274713Y94759D02*
D03*
Y100259D02*
D03*
X268213Y94759D02*
D03*
Y100259D02*
D03*
X261213Y94759D02*
D03*
Y100259D02*
D03*
X281213Y74759D02*
D03*
Y80259D02*
D03*
X274713Y74759D02*
D03*
Y80259D02*
D03*
X261213Y74759D02*
D03*
Y80259D02*
D03*
X329713Y68713D02*
D03*
Y74213D02*
D03*
X324213Y68713D02*
D03*
Y74213D02*
D03*
X348213Y74759D02*
D03*
Y80259D02*
D03*
X361213Y94759D02*
D03*
Y100259D02*
D03*
X354713Y94759D02*
D03*
Y100259D02*
D03*
X348213Y94759D02*
D03*
Y100259D02*
D03*
X341213Y94759D02*
D03*
Y100259D02*
D03*
X361213Y74759D02*
D03*
Y80259D02*
D03*
X354713Y74759D02*
D03*
Y80259D02*
D03*
X341213Y74759D02*
D03*
Y80259D02*
D03*
X89713Y148713D02*
D03*
Y154213D02*
D03*
X84213Y148713D02*
D03*
Y154213D02*
D03*
X108213Y154759D02*
D03*
Y160259D02*
D03*
X121213Y174759D02*
D03*
Y180259D02*
D03*
X114713Y174759D02*
D03*
Y180259D02*
D03*
X108213Y174759D02*
D03*
Y180259D02*
D03*
X101213Y174759D02*
D03*
Y180259D02*
D03*
X121213Y154759D02*
D03*
Y160259D02*
D03*
X114713Y154759D02*
D03*
Y160259D02*
D03*
X101213Y154759D02*
D03*
Y160259D02*
D03*
X169713Y148713D02*
D03*
Y154213D02*
D03*
X164213Y148713D02*
D03*
Y154213D02*
D03*
X188213Y154759D02*
D03*
Y160259D02*
D03*
X201213Y174759D02*
D03*
Y180259D02*
D03*
X194713Y174759D02*
D03*
Y180259D02*
D03*
X188213Y174759D02*
D03*
Y180259D02*
D03*
X181213Y174759D02*
D03*
Y180259D02*
D03*
X201213Y154759D02*
D03*
Y160259D02*
D03*
X194713Y154759D02*
D03*
Y160259D02*
D03*
X181213Y154759D02*
D03*
Y160259D02*
D03*
X249713Y148713D02*
D03*
Y154213D02*
D03*
X244213Y148713D02*
D03*
Y154213D02*
D03*
X268213Y154759D02*
D03*
Y160259D02*
D03*
X281213Y174759D02*
D03*
Y180259D02*
D03*
X274713Y174759D02*
D03*
Y180259D02*
D03*
X268213Y174759D02*
D03*
Y180259D02*
D03*
X261213Y174759D02*
D03*
Y180259D02*
D03*
X281213Y154759D02*
D03*
Y160259D02*
D03*
X274713Y154759D02*
D03*
Y160259D02*
D03*
X261213Y154759D02*
D03*
Y160259D02*
D03*
X329713Y148713D02*
D03*
Y154213D02*
D03*
X324213Y148713D02*
D03*
Y154213D02*
D03*
X348213Y154759D02*
D03*
Y160259D02*
D03*
X361213Y174759D02*
D03*
Y180259D02*
D03*
X354713Y174759D02*
D03*
Y180259D02*
D03*
X348213Y174759D02*
D03*
Y180259D02*
D03*
X341213Y174759D02*
D03*
Y180259D02*
D03*
X361213Y154759D02*
D03*
Y160259D02*
D03*
X354713Y154759D02*
D03*
Y160259D02*
D03*
X341213Y154759D02*
D03*
Y160259D02*
D03*
X89713Y228713D02*
D03*
Y234213D02*
D03*
X84213Y228713D02*
D03*
Y234213D02*
D03*
X108213Y234759D02*
D03*
Y240259D02*
D03*
X121213Y254759D02*
D03*
Y260259D02*
D03*
X114713Y254759D02*
D03*
Y260259D02*
D03*
X108213Y254759D02*
D03*
Y260259D02*
D03*
X101213Y254759D02*
D03*
Y260259D02*
D03*
X121213Y234759D02*
D03*
Y240259D02*
D03*
X114713Y234759D02*
D03*
Y240259D02*
D03*
X101213Y234759D02*
D03*
Y240259D02*
D03*
X169713Y228713D02*
D03*
Y234213D02*
D03*
X164213Y228713D02*
D03*
Y234213D02*
D03*
X188213Y234759D02*
D03*
Y240259D02*
D03*
X201213Y254759D02*
D03*
Y260259D02*
D03*
X194713Y254759D02*
D03*
Y260259D02*
D03*
X188213Y254759D02*
D03*
Y260259D02*
D03*
X181213Y254759D02*
D03*
Y260259D02*
D03*
X201213Y234759D02*
D03*
Y240259D02*
D03*
X194713Y234759D02*
D03*
Y240259D02*
D03*
X181213Y234759D02*
D03*
Y240259D02*
D03*
X249713Y228713D02*
D03*
Y234213D02*
D03*
X244213Y228713D02*
D03*
Y234213D02*
D03*
X268213Y234759D02*
D03*
Y240259D02*
D03*
X281213Y254759D02*
D03*
Y260259D02*
D03*
X274713Y254759D02*
D03*
Y260259D02*
D03*
X268213Y254759D02*
D03*
Y260259D02*
D03*
X261213Y254759D02*
D03*
Y260259D02*
D03*
X281213Y234759D02*
D03*
Y240259D02*
D03*
X274713Y234759D02*
D03*
Y240259D02*
D03*
X261213Y234759D02*
D03*
Y240259D02*
D03*
X329713Y228713D02*
D03*
Y234213D02*
D03*
X324213Y228713D02*
D03*
Y234213D02*
D03*
X348213Y234759D02*
D03*
Y240259D02*
D03*
X361213Y254759D02*
D03*
Y260259D02*
D03*
X354713Y254759D02*
D03*
Y260259D02*
D03*
X348213Y254759D02*
D03*
Y260259D02*
D03*
X341213Y254759D02*
D03*
Y260259D02*
D03*
X361213Y234759D02*
D03*
Y240259D02*
D03*
X354713Y234759D02*
D03*
Y240259D02*
D03*
X341213Y234759D02*
D03*
Y240259D02*
D03*
X89713Y308713D02*
D03*
Y314213D02*
D03*
X84213Y308713D02*
D03*
Y314213D02*
D03*
X108213Y314759D02*
D03*
Y320259D02*
D03*
X121213Y334759D02*
D03*
Y340259D02*
D03*
X114713Y334759D02*
D03*
Y340259D02*
D03*
X108213Y334759D02*
D03*
Y340259D02*
D03*
X101213Y334759D02*
D03*
Y340259D02*
D03*
X121213Y314759D02*
D03*
Y320259D02*
D03*
X114713Y314759D02*
D03*
Y320259D02*
D03*
X101213Y314759D02*
D03*
Y320259D02*
D03*
X169713Y308713D02*
D03*
Y314213D02*
D03*
X164213Y308713D02*
D03*
Y314213D02*
D03*
X188213Y314759D02*
D03*
Y320259D02*
D03*
X201213Y334759D02*
D03*
Y340259D02*
D03*
X194713Y334759D02*
D03*
Y340259D02*
D03*
X188213Y334759D02*
D03*
Y340259D02*
D03*
X181213Y334759D02*
D03*
Y340259D02*
D03*
X201213Y314759D02*
D03*
Y320259D02*
D03*
X194713Y314759D02*
D03*
Y320259D02*
D03*
X181213Y314759D02*
D03*
Y320259D02*
D03*
X249713Y308713D02*
D03*
Y314213D02*
D03*
X244213Y308713D02*
D03*
Y314213D02*
D03*
X268213Y314759D02*
D03*
Y320259D02*
D03*
X281213Y334759D02*
D03*
Y340259D02*
D03*
X274713Y334759D02*
D03*
Y340259D02*
D03*
X268213Y334759D02*
D03*
Y340259D02*
D03*
X261213Y334759D02*
D03*
Y340259D02*
D03*
X281213Y314759D02*
D03*
Y320259D02*
D03*
X274713Y314759D02*
D03*
Y320259D02*
D03*
X261213Y314759D02*
D03*
Y320259D02*
D03*
X329713Y308713D02*
D03*
Y314213D02*
D03*
X324213Y308713D02*
D03*
Y314213D02*
D03*
X348213Y314759D02*
D03*
Y320259D02*
D03*
X361213Y334759D02*
D03*
Y340259D02*
D03*
X354713Y334759D02*
D03*
Y340259D02*
D03*
X348213Y334759D02*
D03*
Y340259D02*
D03*
X341213Y334759D02*
D03*
Y340259D02*
D03*
X361213Y314759D02*
D03*
Y320259D02*
D03*
X354713Y314759D02*
D03*
Y320259D02*
D03*
X341213Y314759D02*
D03*
Y320259D02*
D03*
X89713Y388713D02*
D03*
Y394213D02*
D03*
X84213Y388713D02*
D03*
Y394213D02*
D03*
X108213Y394759D02*
D03*
Y400259D02*
D03*
X121213Y414759D02*
D03*
Y420259D02*
D03*
X114713Y414759D02*
D03*
Y420259D02*
D03*
X108213Y414759D02*
D03*
Y420259D02*
D03*
X101213Y414759D02*
D03*
Y420259D02*
D03*
X121213Y394759D02*
D03*
Y400259D02*
D03*
X114713Y394759D02*
D03*
Y400259D02*
D03*
X101213Y394759D02*
D03*
Y400259D02*
D03*
X169713Y388713D02*
D03*
Y394213D02*
D03*
X164213Y388713D02*
D03*
Y394213D02*
D03*
X188213Y394759D02*
D03*
Y400259D02*
D03*
X201213Y414759D02*
D03*
Y420259D02*
D03*
X194713Y414759D02*
D03*
Y420259D02*
D03*
X188213Y414759D02*
D03*
Y420259D02*
D03*
X181213Y414759D02*
D03*
Y420259D02*
D03*
X201213Y394759D02*
D03*
Y400259D02*
D03*
X194713Y394759D02*
D03*
Y400259D02*
D03*
X181213Y394759D02*
D03*
Y400259D02*
D03*
X249713Y388713D02*
D03*
Y394213D02*
D03*
X244213Y388713D02*
D03*
Y394213D02*
D03*
X268213Y394759D02*
D03*
Y400259D02*
D03*
X281213Y414759D02*
D03*
Y420259D02*
D03*
X274713Y414759D02*
D03*
Y420259D02*
D03*
X268213Y414759D02*
D03*
Y420259D02*
D03*
X261213Y414759D02*
D03*
Y420259D02*
D03*
X281213Y394759D02*
D03*
Y400259D02*
D03*
X274713Y394759D02*
D03*
Y400259D02*
D03*
X261213Y394759D02*
D03*
Y400259D02*
D03*
X329713Y388713D02*
D03*
Y394213D02*
D03*
X324213Y388713D02*
D03*
Y394213D02*
D03*
X348213Y394759D02*
D03*
Y400259D02*
D03*
X361213Y414759D02*
D03*
Y420259D02*
D03*
X354713Y414759D02*
D03*
Y420259D02*
D03*
X348213Y414759D02*
D03*
Y420259D02*
D03*
X341213Y414759D02*
D03*
Y420259D02*
D03*
X361213Y394759D02*
D03*
Y400259D02*
D03*
X354713Y394759D02*
D03*
Y400259D02*
D03*
X341213Y394759D02*
D03*
Y400259D02*
D03*
D15*
X95713Y85713D02*
X95713Y85713D01*
X91453Y85713D02*
X95713D01*
X175713D02*
X175713Y85713D01*
X171453Y85713D02*
X175713D01*
X255713D02*
X255713Y85713D01*
X251453Y85713D02*
X255713D01*
X335713D02*
X335713Y85713D01*
X331453Y85713D02*
X335713D01*
X95713Y165713D02*
X95713Y165713D01*
X91453Y165713D02*
X95713D01*
X175713D02*
X175713Y165713D01*
X171453Y165713D02*
X175713D01*
X255713D02*
X255713Y165713D01*
X251453Y165713D02*
X255713D01*
X335713D02*
X335713Y165713D01*
X331453Y165713D02*
X335713D01*
X95713Y245713D02*
X95713Y245713D01*
X91453Y245713D02*
X95713D01*
X175713D02*
X175713Y245713D01*
X171453Y245713D02*
X175713D01*
X255713D02*
X255713Y245713D01*
X251453Y245713D02*
X255713D01*
X335713D02*
X335713Y245713D01*
X331453Y245713D02*
X335713D01*
X95713Y325713D02*
X95713Y325713D01*
X91453Y325713D02*
X95713D01*
X175713D02*
X175713Y325713D01*
X171453Y325713D02*
X175713D01*
X255713D02*
X255713Y325713D01*
X251453Y325713D02*
X255713D01*
X335713D02*
X335713Y325713D01*
X331453Y325713D02*
X335713D01*
X95713Y405713D02*
X95713Y405713D01*
X91453Y405713D02*
X95713D01*
X175713D02*
X175713Y405713D01*
X171453Y405713D02*
X175713D01*
X255713D02*
X255713Y405713D01*
X251453Y405713D02*
X255713D01*
X335713D02*
X335713Y405713D01*
X331453Y405713D02*
X335713D01*
D16*
X70713Y70713D02*
D03*
X150713D02*
D03*
X230713D02*
D03*
X310713D02*
D03*
X70713Y150713D02*
D03*
X150713D02*
D03*
X230713D02*
D03*
X310713D02*
D03*
X70713Y230713D02*
D03*
X150713D02*
D03*
X230713D02*
D03*
X310713D02*
D03*
X70713Y310713D02*
D03*
X150713D02*
D03*
X230713D02*
D03*
X310713D02*
D03*
X70713Y390713D02*
D03*
X150713D02*
D03*
X230713D02*
D03*
X310713D02*
D03*
D17*
X70713Y80713D02*
D03*
Y90713D02*
D03*
Y100713D02*
D03*
Y110713D02*
D03*
Y120713D02*
D03*
X150713Y80713D02*
D03*
Y90713D02*
D03*
Y100713D02*
D03*
Y110713D02*
D03*
Y120713D02*
D03*
X230713Y80713D02*
D03*
Y90713D02*
D03*
Y100713D02*
D03*
Y110713D02*
D03*
Y120713D02*
D03*
X310713Y80713D02*
D03*
Y90713D02*
D03*
Y100713D02*
D03*
Y110713D02*
D03*
Y120713D02*
D03*
X70713Y160713D02*
D03*
Y170713D02*
D03*
Y180713D02*
D03*
Y190713D02*
D03*
Y200713D02*
D03*
X150713Y160713D02*
D03*
Y170713D02*
D03*
Y180713D02*
D03*
Y190713D02*
D03*
Y200713D02*
D03*
X230713Y160713D02*
D03*
Y170713D02*
D03*
Y180713D02*
D03*
Y190713D02*
D03*
Y200713D02*
D03*
X310713Y160713D02*
D03*
Y170713D02*
D03*
Y180713D02*
D03*
Y190713D02*
D03*
Y200713D02*
D03*
X70713Y240713D02*
D03*
Y250713D02*
D03*
Y260713D02*
D03*
Y270713D02*
D03*
Y280713D02*
D03*
X150713Y240713D02*
D03*
Y250713D02*
D03*
Y260713D02*
D03*
Y270713D02*
D03*
Y280713D02*
D03*
X230713Y240713D02*
D03*
Y250713D02*
D03*
Y260713D02*
D03*
Y270713D02*
D03*
Y280713D02*
D03*
X310713Y240713D02*
D03*
Y250713D02*
D03*
Y260713D02*
D03*
Y270713D02*
D03*
Y280713D02*
D03*
X70713Y320713D02*
D03*
Y330713D02*
D03*
Y340713D02*
D03*
Y350713D02*
D03*
Y360713D02*
D03*
X150713Y320713D02*
D03*
Y330713D02*
D03*
Y340713D02*
D03*
Y350713D02*
D03*
Y360713D02*
D03*
X230713Y320713D02*
D03*
Y330713D02*
D03*
Y340713D02*
D03*
Y350713D02*
D03*
Y360713D02*
D03*
X310713Y320713D02*
D03*
Y330713D02*
D03*
Y340713D02*
D03*
Y350713D02*
D03*
Y360713D02*
D03*
X70713Y400713D02*
D03*
Y410713D02*
D03*
Y420713D02*
D03*
Y430713D02*
D03*
Y440713D02*
D03*
X150713Y400713D02*
D03*
Y410713D02*
D03*
Y420713D02*
D03*
Y430713D02*
D03*
Y440713D02*
D03*
X230713Y400713D02*
D03*
Y410713D02*
D03*
Y420713D02*
D03*
Y430713D02*
D03*
Y440713D02*
D03*
X310713Y400713D02*
D03*
Y410713D02*
D03*
Y420713D02*
D03*
Y430713D02*
D03*
Y440713D02*
D03*
D18*
X95713Y90713D02*
D03*
Y94713D02*
D03*
Y85713D02*
D03*
Y68713D02*
D03*
X100713D02*
D03*
X105713D02*
D03*
X110713D02*
D03*
X115713D02*
D03*
X120713D02*
D03*
X175713Y90713D02*
D03*
Y94713D02*
D03*
Y85713D02*
D03*
Y68713D02*
D03*
X180713D02*
D03*
X185713D02*
D03*
X190713D02*
D03*
X195713D02*
D03*
X200713D02*
D03*
X255713Y90713D02*
D03*
Y94713D02*
D03*
Y85713D02*
D03*
Y68713D02*
D03*
X260713D02*
D03*
X265713D02*
D03*
X270713D02*
D03*
X275713D02*
D03*
X280713D02*
D03*
X335713Y90713D02*
D03*
Y94713D02*
D03*
Y85713D02*
D03*
Y68713D02*
D03*
X340713D02*
D03*
X345713D02*
D03*
X350713D02*
D03*
X355713D02*
D03*
X360713D02*
D03*
X95713Y170713D02*
D03*
Y174713D02*
D03*
Y165713D02*
D03*
Y148713D02*
D03*
X100713D02*
D03*
X105713D02*
D03*
X110713D02*
D03*
X115713D02*
D03*
X120713D02*
D03*
X175713Y170713D02*
D03*
Y174713D02*
D03*
Y165713D02*
D03*
Y148713D02*
D03*
X180713D02*
D03*
X185713D02*
D03*
X190713D02*
D03*
X195713D02*
D03*
X200713D02*
D03*
X255713Y170713D02*
D03*
Y174713D02*
D03*
Y165713D02*
D03*
Y148713D02*
D03*
X260713D02*
D03*
X265713D02*
D03*
X270713D02*
D03*
X275713D02*
D03*
X280713D02*
D03*
X335713Y170713D02*
D03*
Y174713D02*
D03*
Y165713D02*
D03*
Y148713D02*
D03*
X340713D02*
D03*
X345713D02*
D03*
X350713D02*
D03*
X355713D02*
D03*
X360713D02*
D03*
X95713Y250713D02*
D03*
Y254713D02*
D03*
Y245713D02*
D03*
Y228713D02*
D03*
X100713D02*
D03*
X105713D02*
D03*
X110713D02*
D03*
X115713D02*
D03*
X120713D02*
D03*
X175713Y250713D02*
D03*
Y254713D02*
D03*
Y245713D02*
D03*
Y228713D02*
D03*
X180713D02*
D03*
X185713D02*
D03*
X190713D02*
D03*
X195713D02*
D03*
X200713D02*
D03*
X255713Y250713D02*
D03*
Y254713D02*
D03*
Y245713D02*
D03*
Y228713D02*
D03*
X260713D02*
D03*
X265713D02*
D03*
X270713D02*
D03*
X275713D02*
D03*
X280713D02*
D03*
X335713Y250713D02*
D03*
Y254713D02*
D03*
Y245713D02*
D03*
Y228713D02*
D03*
X340713D02*
D03*
X345713D02*
D03*
X350713D02*
D03*
X355713D02*
D03*
X360713D02*
D03*
X95713Y330713D02*
D03*
Y334713D02*
D03*
Y325713D02*
D03*
Y308713D02*
D03*
X100713D02*
D03*
X105713D02*
D03*
X110713D02*
D03*
X115713D02*
D03*
X120713D02*
D03*
X175713Y330713D02*
D03*
Y334713D02*
D03*
Y325713D02*
D03*
Y308713D02*
D03*
X180713D02*
D03*
X185713D02*
D03*
X190713D02*
D03*
X195713D02*
D03*
X200713D02*
D03*
X255713Y330713D02*
D03*
Y334713D02*
D03*
Y325713D02*
D03*
Y308713D02*
D03*
X260713D02*
D03*
X265713D02*
D03*
X270713D02*
D03*
X275713D02*
D03*
X280713D02*
D03*
X335713Y330713D02*
D03*
Y334713D02*
D03*
Y325713D02*
D03*
Y308713D02*
D03*
X340713D02*
D03*
X345713D02*
D03*
X350713D02*
D03*
X355713D02*
D03*
X360713D02*
D03*
X95713Y410713D02*
D03*
Y414713D02*
D03*
Y405713D02*
D03*
Y388713D02*
D03*
X100713D02*
D03*
X105713D02*
D03*
X110713D02*
D03*
X115713D02*
D03*
X120713D02*
D03*
X175713Y410713D02*
D03*
Y414713D02*
D03*
Y405713D02*
D03*
Y388713D02*
D03*
X180713D02*
D03*
X185713D02*
D03*
X190713D02*
D03*
X195713D02*
D03*
X200713D02*
D03*
X255713Y410713D02*
D03*
Y414713D02*
D03*
Y405713D02*
D03*
Y388713D02*
D03*
X260713D02*
D03*
X265713D02*
D03*
X270713D02*
D03*
X275713D02*
D03*
X280713D02*
D03*
X335713Y410713D02*
D03*
Y414713D02*
D03*
Y405713D02*
D03*
Y388713D02*
D03*
X340713D02*
D03*
X345713D02*
D03*
X350713D02*
D03*
X355713D02*
D03*
X360713D02*
D03*
M02*
