M48
;Layer_Color=9474304
;FILE_FORMAT=2:5
INCH,LZ
;TYPE=PLATED
T1F00S00C0.01500
T2F00S00C0.03543
;TYPE=NON_PLATED
T3F00S00C0.01968
T4F00S00C0.11811
%
T01
X0255713Y0068713
X0260713
X0265713
X0270713
X0275713
X0280713
X0255713Y0085713
Y0090713
Y0094713
Y0148713
X0260713
X0265713
X0270713
X0275713
X0280713
X0255713Y0165713
Y0170713
Y0174713
X0335713
Y0170713
Y0165713
Y0148713
X0340713
X0345713
X0350713
X0355713
X0360713
X0335713Y0094713
Y0090713
Y0085713
Y0068713
X0340713
X0345713
X0350713
X0355713
X0360713
X0200713
X0195713
X0190713
X0185713
X0180713
X0175713
Y0085713
Y0090713
Y0094713
Y0148713
X0180713
X0185713
X0190713
X0195713
X0200713
X0175713Y0165713
Y0170713
Y0174713
X0095713
Y0170713
Y0165713
Y0148713
X0100713
X0105713
X0110713
X0115713
X0120713
X0095713Y0094713
Y0090713
Y0085713
Y0068713
X0100713
X0105713
X0110713
X0115713
X0120713
Y0228713
X0115713
X0110713
X0105713
X0100713
X0095713
Y0245713
Y0250713
Y0254713
Y0308713
X0100713
X0105713
X0110713
X0115713
X0120713
X0095713Y0325713
Y0330713
Y0334713
X0175713
Y0330713
Y0325713
Y0308713
X0180713
X0185713
X0190713
X0195713
X0200713
X0175713Y0254713
Y0250713
Y0245713
Y0228713
X0180713
X0185713
X0190713
X0195713
X0200713
X0255713
X0260713
X0265713
X0270713
X0275713
X0280713
X0255713Y0245713
Y0250713
Y0254713
Y0308713
X0260713
X0265713
X0270713
X0275713
X0280713
X0255713Y0325713
Y0330713
Y0334713
X0335713
Y0330713
Y0325713
Y0308713
X0340713
X0345713
X0350713
X0355713
X0360713
X0335713Y0254713
Y0250713
Y0245713
Y0228713
X0340713
X0345713
X0350713
X0355713
X0360713
Y0388713
X0355713
X0350713
X0345713
X0340713
X0335713
Y0405713
Y0410713
Y0414713
X0255713
Y0410713
Y0405713
Y0388713
X0260713
X0265713
X0270713
X0275713
X0280713
X0200713
X0195713
X0190713
X0185713
X0180713
X0175713
Y0405713
Y0410713
Y0414713
X0095713
Y0410713
Y0405713
Y0388713
X0100713
X0105713
X0110713
X0115713
X0120713
T02
X0230713Y0070713
Y0080713
Y0090713
Y0100713
Y0110713
Y0120713
Y0150713
Y0160713
Y0170713
Y0180713
Y0190713
Y0200713
X0310713
Y0190713
Y0180713
Y0170713
Y0160713
Y0150713
Y0120713
Y0110713
Y0100713
Y0090713
Y0080713
Y0070713
X0150713
Y0080713
Y0090713
Y0100713
Y0110713
Y0120713
Y0150713
Y0160713
Y0170713
Y0180713
Y0190713
Y0200713
X0070713
Y0190713
Y0180713
Y0170713
Y0160713
Y0150713
Y0120713
Y0110713
Y0100713
Y0090713
Y0080713
Y0070713
Y0230713
Y0240713
Y0250713
Y0260713
Y0270713
Y0280713
Y0310713
Y0320713
Y0330713
Y0340713
Y0350713
Y0360713
X0150713
Y0350713
Y0340713
Y0330713
Y0320713
Y0310713
Y0280713
Y0270713
Y0260713
Y0250713
Y0240713
Y0230713
X0230713
Y0240713
Y0250713
Y0260713
Y0270713
Y0280713
Y0310713
Y0320713
Y0330713
Y0340713
Y0350713
Y0360713
X0310713
Y0350713
Y0340713
Y0330713
Y0320713
Y0310713
Y0280713
Y0270713
Y0260713
Y0250713
Y0240713
Y0230713
Y0390713
Y0400713
Y0410713
Y0420713
Y0430713
Y0440713
X0230713
Y0430713
Y0420713
Y0410713
Y0400713
Y0390713
X0150713
Y0400713
Y0410713
Y0420713
Y0430713
Y0440713
X0070713
Y0430713
Y0420713
Y0410713
Y0400713
Y0390713
T03
X0049213Y0002953
Y0005953
Y0008953
Y0011953
Y0014953
Y0017953
Y0020953
Y0024323
Y0027323
Y0030323
Y0033323
Y0036323
Y0039323
Y0042323
X0383858
Y0039323
Y0036323
Y0033323
Y0030323
Y0027323
Y0024323
Y0020953
Y0017953
Y0014953
Y0011953
Y0008953
Y0005953
Y0002953
X0366713Y0091213
Y0094213
Y0097213
Y0100213
X0340213Y0126713
X0337213
X0334213
X0331213
Y0144713
X0334213
X0337213
X0340213
X0366713Y0171213
Y0174213
Y0177213
Y0180213
X0340213Y0206713
X0337213
X0334213
X0331213
X0304713Y0180213
Y0177213
Y0174213
Y0171213
X0286713
Y0174213
Y0177213
Y0180213
X0260213Y0206713
X0257213
X0254213
X0251213
X0224713Y0180213
Y0177213
Y0174213
Y0171213
X0251213Y0144713
X0254213
X0257213
X0260213
Y0126713
X0257213
X0254213
X0251213
X0224713Y0100213
Y0097213
Y0094213
Y0091213
X0251213Y0064713
X0254213
X0257213
X0260213
X0286713Y0091213
Y0094213
Y0097213
Y0100213
X0304713
Y0097213
Y0094213
Y0091213
X0331213Y0064713
X0334213
X0337213
X0340213
X0206713Y0091213
Y0094213
Y0097213
Y0100213
X0180213Y0126713
X0177213
X0174213
X0171213
Y0144713
X0174213
X0177213
X0180213
X0206713Y0171213
Y0174213
Y0177213
Y0180213
X0180213Y0206713
X0177213
X0174213
X0171213
X0144713Y0180213
Y0177213
Y0174213
Y0171213
X0126713
Y0174213
Y0177213
Y0180213
X0100213Y0206713
X0097213
X0094213
X0091213
X0064713Y0180213
Y0177213
Y0174213
Y0171213
X0091213Y0144713
X0094213
X0097213
X0100213
Y0126713
X0097213
X0094213
X0091213
X0064713Y0100213
Y0097213
Y0094213
Y0091213
X0091213Y0064713
X0094213
X0097213
X0100213
X0126713Y0091213
Y0094213
Y0097213
Y0100213
X0144713
Y0097213
Y0094213
Y0091213
X0171213Y0064713
X0174213
X0177213
X0180213
Y0224713
X0177213
X0174213
X0171213
X0144713Y0251213
Y0254213
Y0257213
Y0260213
X0126713
Y0257213
Y0254213
Y0251213
X0100213Y0224713
X0097213
X0094213
X0091213
X0064713Y0251213
Y0254213
Y0257213
Y0260213
X0091213Y0286713
X0094213
X0097213
X0100213
Y0304713
X0097213
X0094213
X0091213
X0064713Y0331213
Y0334213
Y0337213
Y0340213
X0091213Y0366713
X0094213
X0097213
X0100213
X0126713Y0340213
Y0337213
Y0334213
Y0331213
X0144713
Y0334213
Y0337213
Y0340213
X0171213Y0366713
X0174213
X0177213
X0180213
X0206713Y0340213
Y0337213
Y0334213
Y0331213
X0180213Y0304713
X0177213
X0174213
X0171213
Y0286713
X0174213
X0177213
X0180213
X0206713Y0260213
Y0257213
Y0254213
Y0251213
X0224713
Y0254213
Y0257213
Y0260213
X0251213Y0286713
X0254213
X0257213
X0260213
Y0304713
X0257213
X0254213
X0251213
X0224713Y0331213
Y0334213
Y0337213
Y0340213
X0251213Y0366713
X0254213
X0257213
X0260213
X0286713Y0340213
Y0337213
Y0334213
Y0331213
X0304713
Y0334213
Y0337213
Y0340213
X0331213Y0366713
X0334213
X0337213
X0340213
X0366713Y0340213
Y0337213
Y0334213
Y0331213
X0340213Y0304713
X0337213
X0334213
X0331213
Y0286713
X0334213
X0337213
X0340213
X0366713Y0260213
Y0257213
Y0254213
Y0251213
X0340213Y0224713
X0337213
X0334213
X0331213
X0304713Y0251213
Y0254213
Y0257213
Y0260213
X0286713
Y0257213
Y0254213
Y0251213
X0260213Y0224713
X0257213
X0254213
X0251213
X0383858Y0469488
Y0472488
Y0475488
Y0478488
Y0481488
Y0484488
Y0487488
Y0490858
Y0493858
Y0496858
Y0499858
Y0502858
Y0505858
Y0508858
X0340213Y0446713
X0337213
X0334213
X0331213
X0304713Y0420213
Y0417213
Y0414213
Y0411213
X0286713
Y0414213
Y0417213
Y0420213
X0260213Y0446713
X0257213
X0254213
X0251213
X0224713Y0420213
Y0417213
Y0414213
Y0411213
X0251213Y0384713
X0254213
X0257213
X0260213
X0331213
X0334213
X0337213
X0340213
X0366713Y0411213
Y0414213
Y0417213
Y0420213
X0206713
Y0417213
Y0414213
Y0411213
X0180213Y0384713
X0177213
X0174213
X0171213
X0144713Y0411213
Y0414213
Y0417213
Y0420213
X0126713
Y0417213
Y0414213
Y0411213
X0100213Y0384713
X0097213
X0094213
X0091213
X0064713Y0411213
Y0414213
Y0417213
Y0420213
X0091213Y0446713
X0094213
X0097213
X0100213
X0171213
X0174213
X0177213
X0180213
X0048228Y0469488
Y0472488
Y0475488
Y0478488
Y0481488
Y0484488
Y0487488
Y0490858
Y0493858
Y0496858
Y0499858
Y0502858
Y0505858
Y0508858
T04
X0019685Y0019685
X0413386
Y0492126
X0019685
M30
