%FSLAX25Y25*%
%MOIN*%
G70*
G01*
G75*
G04 Layer_Color=8388736*
%ADD10C,0.03937*%
%ADD11R,0.19685X0.13780*%
%ADD12R,0.02756X0.03543*%
%ADD13R,0.01969X0.01575*%
%ADD14R,0.03600X0.03600*%
%ADD15C,0.01000*%
%ADD16R,0.05906X0.05906*%
%ADD17C,0.05906*%
%ADD18C,0.03000*%
%ADD19C,0.00600*%
%ADD20C,0.00787*%
%ADD21C,0.04737*%
%ADD22R,0.20485X0.14579*%
%ADD23R,0.03556X0.04343*%
%ADD24R,0.02769X0.02375*%
%ADD25R,0.04400X0.04400*%
%ADD26C,0.00800*%
%ADD27R,0.06706X0.06706*%
%ADD28C,0.06706*%
D21*
X413386Y442913D02*
D03*
X19685D02*
D03*
X413386Y68898D02*
D03*
X19685D02*
D03*
D22*
X113901Y116713D02*
D03*
X88311D02*
D03*
X193902D02*
D03*
X168311D02*
D03*
X273902D02*
D03*
X248311D02*
D03*
X353902D02*
D03*
X328311D02*
D03*
X113901Y196713D02*
D03*
X88311D02*
D03*
X193902D02*
D03*
X168311D02*
D03*
X273902D02*
D03*
X248311D02*
D03*
X353902D02*
D03*
X328311D02*
D03*
X113901Y276713D02*
D03*
X88311D02*
D03*
X193902D02*
D03*
X168311D02*
D03*
X273902D02*
D03*
X248311D02*
D03*
X353902D02*
D03*
X328311D02*
D03*
X113901Y356713D02*
D03*
X88311D02*
D03*
X193902D02*
D03*
X168311D02*
D03*
X273902D02*
D03*
X248311D02*
D03*
X353902D02*
D03*
X328311D02*
D03*
X113901Y436713D02*
D03*
X88311D02*
D03*
X193902D02*
D03*
X168311D02*
D03*
X273902D02*
D03*
X248311D02*
D03*
X353902D02*
D03*
X328311D02*
D03*
D23*
X83713Y94713D02*
D03*
X91193D02*
D03*
X87453Y102587D02*
D03*
X163713Y94713D02*
D03*
X171193D02*
D03*
X167453Y102587D02*
D03*
X243713Y94713D02*
D03*
X251193D02*
D03*
X247453Y102587D02*
D03*
X323713Y94713D02*
D03*
X331193D02*
D03*
X327453Y102587D02*
D03*
X83713Y174713D02*
D03*
X91193D02*
D03*
X87453Y182587D02*
D03*
X163713Y174713D02*
D03*
X171193D02*
D03*
X167453Y182587D02*
D03*
X243713Y174713D02*
D03*
X251193D02*
D03*
X247453Y182587D02*
D03*
X323713Y174713D02*
D03*
X331193D02*
D03*
X327453Y182587D02*
D03*
X83713Y254713D02*
D03*
X91193D02*
D03*
X87453Y262587D02*
D03*
X163713Y254713D02*
D03*
X171193D02*
D03*
X167453Y262587D02*
D03*
X243713Y254713D02*
D03*
X251193D02*
D03*
X247453Y262587D02*
D03*
X323713Y254713D02*
D03*
X331193D02*
D03*
X327453Y262587D02*
D03*
X83713Y334713D02*
D03*
X91193D02*
D03*
X87453Y342587D02*
D03*
X163713Y334713D02*
D03*
X171193D02*
D03*
X167453Y342587D02*
D03*
X243713Y334713D02*
D03*
X251193D02*
D03*
X247453Y342587D02*
D03*
X323713Y334713D02*
D03*
X331193D02*
D03*
X327453Y342587D02*
D03*
X83713Y414713D02*
D03*
X91193D02*
D03*
X87453Y422587D02*
D03*
X163713Y414713D02*
D03*
X171193D02*
D03*
X167453Y422587D02*
D03*
X243713Y414713D02*
D03*
X251193D02*
D03*
X247453Y422587D02*
D03*
X323713Y414713D02*
D03*
X331193D02*
D03*
X327453Y422587D02*
D03*
D24*
X83972Y83153D02*
D03*
X91453Y85713D02*
D03*
Y83153D02*
D03*
Y88272D02*
D03*
X83972D02*
D03*
X163972Y83153D02*
D03*
X171453Y85713D02*
D03*
Y83153D02*
D03*
Y88272D02*
D03*
X163972D02*
D03*
X243972Y83153D02*
D03*
X251453Y85713D02*
D03*
Y83153D02*
D03*
Y88272D02*
D03*
X243972D02*
D03*
X323972Y83153D02*
D03*
X331453Y85713D02*
D03*
Y83153D02*
D03*
Y88272D02*
D03*
X323972D02*
D03*
X83972Y163154D02*
D03*
X91453Y165713D02*
D03*
Y163154D02*
D03*
Y168272D02*
D03*
X83972D02*
D03*
X163972Y163154D02*
D03*
X171453Y165713D02*
D03*
Y163154D02*
D03*
Y168272D02*
D03*
X163972D02*
D03*
X243972Y163154D02*
D03*
X251453Y165713D02*
D03*
Y163154D02*
D03*
Y168272D02*
D03*
X243972D02*
D03*
X323972Y163154D02*
D03*
X331453Y165713D02*
D03*
Y163154D02*
D03*
Y168272D02*
D03*
X323972D02*
D03*
X83972Y243154D02*
D03*
X91453Y245713D02*
D03*
Y243154D02*
D03*
Y248272D02*
D03*
X83972D02*
D03*
X163972Y243154D02*
D03*
X171453Y245713D02*
D03*
Y243154D02*
D03*
Y248272D02*
D03*
X163972D02*
D03*
X243972Y243154D02*
D03*
X251453Y245713D02*
D03*
Y243154D02*
D03*
Y248272D02*
D03*
X243972D02*
D03*
X323972Y243154D02*
D03*
X331453Y245713D02*
D03*
Y243154D02*
D03*
Y248272D02*
D03*
X323972D02*
D03*
X83972Y323153D02*
D03*
X91453Y325713D02*
D03*
Y323153D02*
D03*
Y328272D02*
D03*
X83972D02*
D03*
X163972Y323153D02*
D03*
X171453Y325713D02*
D03*
Y323153D02*
D03*
Y328272D02*
D03*
X163972D02*
D03*
X243972Y323153D02*
D03*
X251453Y325713D02*
D03*
Y323153D02*
D03*
Y328272D02*
D03*
X243972D02*
D03*
X323972Y323153D02*
D03*
X331453Y325713D02*
D03*
Y323153D02*
D03*
Y328272D02*
D03*
X323972D02*
D03*
X83972Y403154D02*
D03*
X91453Y405713D02*
D03*
Y403154D02*
D03*
Y408272D02*
D03*
X83972D02*
D03*
X163972Y403154D02*
D03*
X171453Y405713D02*
D03*
Y403154D02*
D03*
Y408272D02*
D03*
X163972D02*
D03*
X243972Y403154D02*
D03*
X251453Y405713D02*
D03*
Y403154D02*
D03*
Y408272D02*
D03*
X243972D02*
D03*
X323972Y403154D02*
D03*
X331453Y405713D02*
D03*
Y403154D02*
D03*
Y408272D02*
D03*
X323972D02*
D03*
D25*
X89713Y68713D02*
D03*
Y74213D02*
D03*
X84213Y68713D02*
D03*
Y74213D02*
D03*
X108213Y74759D02*
D03*
Y80259D02*
D03*
X121213Y94759D02*
D03*
Y100259D02*
D03*
X114713Y94759D02*
D03*
Y100259D02*
D03*
X108213Y94759D02*
D03*
Y100259D02*
D03*
X101213Y94759D02*
D03*
Y100259D02*
D03*
X121213Y74759D02*
D03*
Y80259D02*
D03*
X114713Y74759D02*
D03*
Y80259D02*
D03*
X101213Y74759D02*
D03*
Y80259D02*
D03*
X169713Y68713D02*
D03*
Y74213D02*
D03*
X164213Y68713D02*
D03*
Y74213D02*
D03*
X188213Y74759D02*
D03*
Y80259D02*
D03*
X201213Y94759D02*
D03*
Y100259D02*
D03*
X194713Y94759D02*
D03*
Y100259D02*
D03*
X188213Y94759D02*
D03*
Y100259D02*
D03*
X181213Y94759D02*
D03*
Y100259D02*
D03*
X201213Y74759D02*
D03*
Y80259D02*
D03*
X194713Y74759D02*
D03*
Y80259D02*
D03*
X181213Y74759D02*
D03*
Y80259D02*
D03*
X249713Y68713D02*
D03*
Y74213D02*
D03*
X244213Y68713D02*
D03*
Y74213D02*
D03*
X268213Y74759D02*
D03*
Y80259D02*
D03*
X281213Y94759D02*
D03*
Y100259D02*
D03*
X274713Y94759D02*
D03*
Y100259D02*
D03*
X268213Y94759D02*
D03*
Y100259D02*
D03*
X261213Y94759D02*
D03*
Y100259D02*
D03*
X281213Y74759D02*
D03*
Y80259D02*
D03*
X274713Y74759D02*
D03*
Y80259D02*
D03*
X261213Y74759D02*
D03*
Y80259D02*
D03*
X329713Y68713D02*
D03*
Y74213D02*
D03*
X324213Y68713D02*
D03*
Y74213D02*
D03*
X348213Y74759D02*
D03*
Y80259D02*
D03*
X361213Y94759D02*
D03*
Y100259D02*
D03*
X354713Y94759D02*
D03*
Y100259D02*
D03*
X348213Y94759D02*
D03*
Y100259D02*
D03*
X341213Y94759D02*
D03*
Y100259D02*
D03*
X361213Y74759D02*
D03*
Y80259D02*
D03*
X354713Y74759D02*
D03*
Y80259D02*
D03*
X341213Y74759D02*
D03*
Y80259D02*
D03*
X89713Y148713D02*
D03*
Y154213D02*
D03*
X84213Y148713D02*
D03*
Y154213D02*
D03*
X108213Y154759D02*
D03*
Y160259D02*
D03*
X121213Y174759D02*
D03*
Y180259D02*
D03*
X114713Y174759D02*
D03*
Y180259D02*
D03*
X108213Y174759D02*
D03*
Y180259D02*
D03*
X101213Y174759D02*
D03*
Y180259D02*
D03*
X121213Y154759D02*
D03*
Y160259D02*
D03*
X114713Y154759D02*
D03*
Y160259D02*
D03*
X101213Y154759D02*
D03*
Y160259D02*
D03*
X169713Y148713D02*
D03*
Y154213D02*
D03*
X164213Y148713D02*
D03*
Y154213D02*
D03*
X188213Y154759D02*
D03*
Y160259D02*
D03*
X201213Y174759D02*
D03*
Y180259D02*
D03*
X194713Y174759D02*
D03*
Y180259D02*
D03*
X188213Y174759D02*
D03*
Y180259D02*
D03*
X181213Y174759D02*
D03*
Y180259D02*
D03*
X201213Y154759D02*
D03*
Y160259D02*
D03*
X194713Y154759D02*
D03*
Y160259D02*
D03*
X181213Y154759D02*
D03*
Y160259D02*
D03*
X249713Y148713D02*
D03*
Y154213D02*
D03*
X244213Y148713D02*
D03*
Y154213D02*
D03*
X268213Y154759D02*
D03*
Y160259D02*
D03*
X281213Y174759D02*
D03*
Y180259D02*
D03*
X274713Y174759D02*
D03*
Y180259D02*
D03*
X268213Y174759D02*
D03*
Y180259D02*
D03*
X261213Y174759D02*
D03*
Y180259D02*
D03*
X281213Y154759D02*
D03*
Y160259D02*
D03*
X274713Y154759D02*
D03*
Y160259D02*
D03*
X261213Y154759D02*
D03*
Y160259D02*
D03*
X329713Y148713D02*
D03*
Y154213D02*
D03*
X324213Y148713D02*
D03*
Y154213D02*
D03*
X348213Y154759D02*
D03*
Y160259D02*
D03*
X361213Y174759D02*
D03*
Y180259D02*
D03*
X354713Y174759D02*
D03*
Y180259D02*
D03*
X348213Y174759D02*
D03*
Y180259D02*
D03*
X341213Y174759D02*
D03*
Y180259D02*
D03*
X361213Y154759D02*
D03*
Y160259D02*
D03*
X354713Y154759D02*
D03*
Y160259D02*
D03*
X341213Y154759D02*
D03*
Y160259D02*
D03*
X89713Y228713D02*
D03*
Y234213D02*
D03*
X84213Y228713D02*
D03*
Y234213D02*
D03*
X108213Y234759D02*
D03*
Y240259D02*
D03*
X121213Y254759D02*
D03*
Y260259D02*
D03*
X114713Y254759D02*
D03*
Y260259D02*
D03*
X108213Y254759D02*
D03*
Y260259D02*
D03*
X101213Y254759D02*
D03*
Y260259D02*
D03*
X121213Y234759D02*
D03*
Y240259D02*
D03*
X114713Y234759D02*
D03*
Y240259D02*
D03*
X101213Y234759D02*
D03*
Y240259D02*
D03*
X169713Y228713D02*
D03*
Y234213D02*
D03*
X164213Y228713D02*
D03*
Y234213D02*
D03*
X188213Y234759D02*
D03*
Y240259D02*
D03*
X201213Y254759D02*
D03*
Y260259D02*
D03*
X194713Y254759D02*
D03*
Y260259D02*
D03*
X188213Y254759D02*
D03*
Y260259D02*
D03*
X181213Y254759D02*
D03*
Y260259D02*
D03*
X201213Y234759D02*
D03*
Y240259D02*
D03*
X194713Y234759D02*
D03*
Y240259D02*
D03*
X181213Y234759D02*
D03*
Y240259D02*
D03*
X249713Y228713D02*
D03*
Y234213D02*
D03*
X244213Y228713D02*
D03*
Y234213D02*
D03*
X268213Y234759D02*
D03*
Y240259D02*
D03*
X281213Y254759D02*
D03*
Y260259D02*
D03*
X274713Y254759D02*
D03*
Y260259D02*
D03*
X268213Y254759D02*
D03*
Y260259D02*
D03*
X261213Y254759D02*
D03*
Y260259D02*
D03*
X281213Y234759D02*
D03*
Y240259D02*
D03*
X274713Y234759D02*
D03*
Y240259D02*
D03*
X261213Y234759D02*
D03*
Y240259D02*
D03*
X329713Y228713D02*
D03*
Y234213D02*
D03*
X324213Y228713D02*
D03*
Y234213D02*
D03*
X348213Y234759D02*
D03*
Y240259D02*
D03*
X361213Y254759D02*
D03*
Y260259D02*
D03*
X354713Y254759D02*
D03*
Y260259D02*
D03*
X348213Y254759D02*
D03*
Y260259D02*
D03*
X341213Y254759D02*
D03*
Y260259D02*
D03*
X361213Y234759D02*
D03*
Y240259D02*
D03*
X354713Y234759D02*
D03*
Y240259D02*
D03*
X341213Y234759D02*
D03*
Y240259D02*
D03*
X89713Y308713D02*
D03*
Y314213D02*
D03*
X84213Y308713D02*
D03*
Y314213D02*
D03*
X108213Y314759D02*
D03*
Y320259D02*
D03*
X121213Y334759D02*
D03*
Y340259D02*
D03*
X114713Y334759D02*
D03*
Y340259D02*
D03*
X108213Y334759D02*
D03*
Y340259D02*
D03*
X101213Y334759D02*
D03*
Y340259D02*
D03*
X121213Y314759D02*
D03*
Y320259D02*
D03*
X114713Y314759D02*
D03*
Y320259D02*
D03*
X101213Y314759D02*
D03*
Y320259D02*
D03*
X169713Y308713D02*
D03*
Y314213D02*
D03*
X164213Y308713D02*
D03*
Y314213D02*
D03*
X188213Y314759D02*
D03*
Y320259D02*
D03*
X201213Y334759D02*
D03*
Y340259D02*
D03*
X194713Y334759D02*
D03*
Y340259D02*
D03*
X188213Y334759D02*
D03*
Y340259D02*
D03*
X181213Y334759D02*
D03*
Y340259D02*
D03*
X201213Y314759D02*
D03*
Y320259D02*
D03*
X194713Y314759D02*
D03*
Y320259D02*
D03*
X181213Y314759D02*
D03*
Y320259D02*
D03*
X249713Y308713D02*
D03*
Y314213D02*
D03*
X244213Y308713D02*
D03*
Y314213D02*
D03*
X268213Y314759D02*
D03*
Y320259D02*
D03*
X281213Y334759D02*
D03*
Y340259D02*
D03*
X274713Y334759D02*
D03*
Y340259D02*
D03*
X268213Y334759D02*
D03*
Y340259D02*
D03*
X261213Y334759D02*
D03*
Y340259D02*
D03*
X281213Y314759D02*
D03*
Y320259D02*
D03*
X274713Y314759D02*
D03*
Y320259D02*
D03*
X261213Y314759D02*
D03*
Y320259D02*
D03*
X329713Y308713D02*
D03*
Y314213D02*
D03*
X324213Y308713D02*
D03*
Y314213D02*
D03*
X348213Y314759D02*
D03*
Y320259D02*
D03*
X361213Y334759D02*
D03*
Y340259D02*
D03*
X354713Y334759D02*
D03*
Y340259D02*
D03*
X348213Y334759D02*
D03*
Y340259D02*
D03*
X341213Y334759D02*
D03*
Y340259D02*
D03*
X361213Y314759D02*
D03*
Y320259D02*
D03*
X354713Y314759D02*
D03*
Y320259D02*
D03*
X341213Y314759D02*
D03*
Y320259D02*
D03*
X89713Y388713D02*
D03*
Y394213D02*
D03*
X84213Y388713D02*
D03*
Y394213D02*
D03*
X108213Y394759D02*
D03*
Y400259D02*
D03*
X121213Y414759D02*
D03*
Y420259D02*
D03*
X114713Y414759D02*
D03*
Y420259D02*
D03*
X108213Y414759D02*
D03*
Y420259D02*
D03*
X101213Y414759D02*
D03*
Y420259D02*
D03*
X121213Y394759D02*
D03*
Y400259D02*
D03*
X114713Y394759D02*
D03*
Y400259D02*
D03*
X101213Y394759D02*
D03*
Y400259D02*
D03*
X169713Y388713D02*
D03*
Y394213D02*
D03*
X164213Y388713D02*
D03*
Y394213D02*
D03*
X188213Y394759D02*
D03*
Y400259D02*
D03*
X201213Y414759D02*
D03*
Y420259D02*
D03*
X194713Y414759D02*
D03*
Y420259D02*
D03*
X188213Y414759D02*
D03*
Y420259D02*
D03*
X181213Y414759D02*
D03*
Y420259D02*
D03*
X201213Y394759D02*
D03*
Y400259D02*
D03*
X194713Y394759D02*
D03*
Y400259D02*
D03*
X181213Y394759D02*
D03*
Y400259D02*
D03*
X249713Y388713D02*
D03*
Y394213D02*
D03*
X244213Y388713D02*
D03*
Y394213D02*
D03*
X268213Y394759D02*
D03*
Y400259D02*
D03*
X281213Y414759D02*
D03*
Y420259D02*
D03*
X274713Y414759D02*
D03*
Y420259D02*
D03*
X268213Y414759D02*
D03*
Y420259D02*
D03*
X261213Y414759D02*
D03*
Y420259D02*
D03*
X281213Y394759D02*
D03*
Y400259D02*
D03*
X274713Y394759D02*
D03*
Y400259D02*
D03*
X261213Y394759D02*
D03*
Y400259D02*
D03*
X329713Y388713D02*
D03*
Y394213D02*
D03*
X324213Y388713D02*
D03*
Y394213D02*
D03*
X348213Y394759D02*
D03*
Y400259D02*
D03*
X361213Y414759D02*
D03*
Y420259D02*
D03*
X354713Y414759D02*
D03*
Y420259D02*
D03*
X348213Y414759D02*
D03*
Y420259D02*
D03*
X341213Y414759D02*
D03*
Y420259D02*
D03*
X361213Y394759D02*
D03*
Y400259D02*
D03*
X354713Y394759D02*
D03*
Y400259D02*
D03*
X341213Y394759D02*
D03*
Y400259D02*
D03*
D26*
X48228Y493858D02*
D03*
Y490858D02*
D03*
Y496858D02*
D03*
Y499858D02*
D03*
Y502858D02*
D03*
Y505858D02*
D03*
Y508858D02*
D03*
Y472488D02*
D03*
Y475488D02*
D03*
Y478488D02*
D03*
Y481488D02*
D03*
Y484488D02*
D03*
Y487488D02*
D03*
Y469488D02*
D03*
X383858Y493858D02*
D03*
Y490858D02*
D03*
Y496858D02*
D03*
Y499858D02*
D03*
Y502858D02*
D03*
Y505858D02*
D03*
Y508858D02*
D03*
Y472488D02*
D03*
Y475488D02*
D03*
Y478488D02*
D03*
Y481488D02*
D03*
Y484488D02*
D03*
Y487488D02*
D03*
Y469488D02*
D03*
Y27323D02*
D03*
Y24323D02*
D03*
Y30323D02*
D03*
Y33323D02*
D03*
Y36323D02*
D03*
Y39323D02*
D03*
Y42323D02*
D03*
Y5953D02*
D03*
Y8953D02*
D03*
Y11953D02*
D03*
Y14953D02*
D03*
Y17953D02*
D03*
Y20953D02*
D03*
Y2953D02*
D03*
X49213D02*
D03*
Y20953D02*
D03*
Y17953D02*
D03*
Y14953D02*
D03*
Y11953D02*
D03*
Y8953D02*
D03*
Y5953D02*
D03*
Y42323D02*
D03*
Y39323D02*
D03*
Y36323D02*
D03*
Y33323D02*
D03*
Y30323D02*
D03*
Y24323D02*
D03*
Y27323D02*
D03*
X413386Y492126D02*
D03*
X19685D02*
D03*
X413386Y19685D02*
D03*
X19685D02*
D03*
X91213Y126713D02*
D03*
X94213D02*
D03*
X100213D02*
D03*
X97213D02*
D03*
X126713Y91213D02*
D03*
Y94213D02*
D03*
Y100213D02*
D03*
Y97213D02*
D03*
X91213Y64713D02*
D03*
X94213D02*
D03*
X100213D02*
D03*
X97213D02*
D03*
X64713Y97213D02*
D03*
Y100213D02*
D03*
Y94213D02*
D03*
Y91213D02*
D03*
X171213Y126713D02*
D03*
X174213D02*
D03*
X180213D02*
D03*
X177213D02*
D03*
X206713Y91213D02*
D03*
Y94213D02*
D03*
Y100213D02*
D03*
Y97213D02*
D03*
X171213Y64713D02*
D03*
X174213D02*
D03*
X180213D02*
D03*
X177213D02*
D03*
X144713Y97213D02*
D03*
Y100213D02*
D03*
Y94213D02*
D03*
Y91213D02*
D03*
X251213Y126713D02*
D03*
X254213D02*
D03*
X260213D02*
D03*
X257213D02*
D03*
X286713Y91213D02*
D03*
Y94213D02*
D03*
Y100213D02*
D03*
Y97213D02*
D03*
X251213Y64713D02*
D03*
X254213D02*
D03*
X260213D02*
D03*
X257213D02*
D03*
X224713Y97213D02*
D03*
Y100213D02*
D03*
Y94213D02*
D03*
Y91213D02*
D03*
X331213Y126713D02*
D03*
X334213D02*
D03*
X340213D02*
D03*
X337213D02*
D03*
X366713Y91213D02*
D03*
Y94213D02*
D03*
Y100213D02*
D03*
Y97213D02*
D03*
X331213Y64713D02*
D03*
X334213D02*
D03*
X340213D02*
D03*
X337213D02*
D03*
X304713Y97213D02*
D03*
Y100213D02*
D03*
Y94213D02*
D03*
Y91213D02*
D03*
X91213Y206713D02*
D03*
X94213D02*
D03*
X100213D02*
D03*
X97213D02*
D03*
X126713Y171213D02*
D03*
Y174213D02*
D03*
Y180213D02*
D03*
Y177213D02*
D03*
X91213Y144713D02*
D03*
X94213D02*
D03*
X100213D02*
D03*
X97213D02*
D03*
X64713Y177213D02*
D03*
Y180213D02*
D03*
Y174213D02*
D03*
Y171213D02*
D03*
X171213Y206713D02*
D03*
X174213D02*
D03*
X180213D02*
D03*
X177213D02*
D03*
X206713Y171213D02*
D03*
Y174213D02*
D03*
Y180213D02*
D03*
Y177213D02*
D03*
X171213Y144713D02*
D03*
X174213D02*
D03*
X180213D02*
D03*
X177213D02*
D03*
X144713Y177213D02*
D03*
Y180213D02*
D03*
Y174213D02*
D03*
Y171213D02*
D03*
X251213Y206713D02*
D03*
X254213D02*
D03*
X260213D02*
D03*
X257213D02*
D03*
X286713Y171213D02*
D03*
Y174213D02*
D03*
Y180213D02*
D03*
Y177213D02*
D03*
X251213Y144713D02*
D03*
X254213D02*
D03*
X260213D02*
D03*
X257213D02*
D03*
X224713Y177213D02*
D03*
Y180213D02*
D03*
Y174213D02*
D03*
Y171213D02*
D03*
X331213Y206713D02*
D03*
X334213D02*
D03*
X340213D02*
D03*
X337213D02*
D03*
X366713Y171213D02*
D03*
Y174213D02*
D03*
Y180213D02*
D03*
Y177213D02*
D03*
X331213Y144713D02*
D03*
X334213D02*
D03*
X340213D02*
D03*
X337213D02*
D03*
X304713Y177213D02*
D03*
Y180213D02*
D03*
Y174213D02*
D03*
Y171213D02*
D03*
X91213Y286713D02*
D03*
X94213D02*
D03*
X100213D02*
D03*
X97213D02*
D03*
X126713Y251213D02*
D03*
Y254213D02*
D03*
Y260213D02*
D03*
Y257213D02*
D03*
X91213Y224713D02*
D03*
X94213D02*
D03*
X100213D02*
D03*
X97213D02*
D03*
X64713Y257213D02*
D03*
Y260213D02*
D03*
Y254213D02*
D03*
Y251213D02*
D03*
X171213Y286713D02*
D03*
X174213D02*
D03*
X180213D02*
D03*
X177213D02*
D03*
X206713Y251213D02*
D03*
Y254213D02*
D03*
Y260213D02*
D03*
Y257213D02*
D03*
X171213Y224713D02*
D03*
X174213D02*
D03*
X180213D02*
D03*
X177213D02*
D03*
X144713Y257213D02*
D03*
Y260213D02*
D03*
Y254213D02*
D03*
Y251213D02*
D03*
X251213Y286713D02*
D03*
X254213D02*
D03*
X260213D02*
D03*
X257213D02*
D03*
X286713Y251213D02*
D03*
Y254213D02*
D03*
Y260213D02*
D03*
Y257213D02*
D03*
X251213Y224713D02*
D03*
X254213D02*
D03*
X260213D02*
D03*
X257213D02*
D03*
X224713Y257213D02*
D03*
Y260213D02*
D03*
Y254213D02*
D03*
Y251213D02*
D03*
X331213Y286713D02*
D03*
X334213D02*
D03*
X340213D02*
D03*
X337213D02*
D03*
X366713Y251213D02*
D03*
Y254213D02*
D03*
Y260213D02*
D03*
Y257213D02*
D03*
X331213Y224713D02*
D03*
X334213D02*
D03*
X340213D02*
D03*
X337213D02*
D03*
X304713Y257213D02*
D03*
Y260213D02*
D03*
Y254213D02*
D03*
Y251213D02*
D03*
X91213Y366713D02*
D03*
X94213D02*
D03*
X100213D02*
D03*
X97213D02*
D03*
X126713Y331213D02*
D03*
Y334213D02*
D03*
Y340213D02*
D03*
Y337213D02*
D03*
X91213Y304713D02*
D03*
X94213D02*
D03*
X100213D02*
D03*
X97213D02*
D03*
X64713Y337213D02*
D03*
Y340213D02*
D03*
Y334213D02*
D03*
Y331213D02*
D03*
X171213Y366713D02*
D03*
X174213D02*
D03*
X180213D02*
D03*
X177213D02*
D03*
X206713Y331213D02*
D03*
Y334213D02*
D03*
Y340213D02*
D03*
Y337213D02*
D03*
X171213Y304713D02*
D03*
X174213D02*
D03*
X180213D02*
D03*
X177213D02*
D03*
X144713Y337213D02*
D03*
Y340213D02*
D03*
Y334213D02*
D03*
Y331213D02*
D03*
X251213Y366713D02*
D03*
X254213D02*
D03*
X260213D02*
D03*
X257213D02*
D03*
X286713Y331213D02*
D03*
Y334213D02*
D03*
Y340213D02*
D03*
Y337213D02*
D03*
X251213Y304713D02*
D03*
X254213D02*
D03*
X260213D02*
D03*
X257213D02*
D03*
X224713Y337213D02*
D03*
Y340213D02*
D03*
Y334213D02*
D03*
Y331213D02*
D03*
X331213Y366713D02*
D03*
X334213D02*
D03*
X340213D02*
D03*
X337213D02*
D03*
X366713Y331213D02*
D03*
Y334213D02*
D03*
Y340213D02*
D03*
Y337213D02*
D03*
X331213Y304713D02*
D03*
X334213D02*
D03*
X340213D02*
D03*
X337213D02*
D03*
X304713Y337213D02*
D03*
Y340213D02*
D03*
Y334213D02*
D03*
Y331213D02*
D03*
X91213Y446713D02*
D03*
X94213D02*
D03*
X100213D02*
D03*
X97213D02*
D03*
X126713Y411213D02*
D03*
Y414213D02*
D03*
Y420213D02*
D03*
Y417213D02*
D03*
X91213Y384713D02*
D03*
X94213D02*
D03*
X100213D02*
D03*
X97213D02*
D03*
X64713Y417213D02*
D03*
Y420213D02*
D03*
Y414213D02*
D03*
Y411213D02*
D03*
X171213Y446713D02*
D03*
X174213D02*
D03*
X180213D02*
D03*
X177213D02*
D03*
X206713Y411213D02*
D03*
Y414213D02*
D03*
Y420213D02*
D03*
Y417213D02*
D03*
X171213Y384713D02*
D03*
X174213D02*
D03*
X180213D02*
D03*
X177213D02*
D03*
X144713Y417213D02*
D03*
Y420213D02*
D03*
Y414213D02*
D03*
Y411213D02*
D03*
X251213Y446713D02*
D03*
X254213D02*
D03*
X260213D02*
D03*
X257213D02*
D03*
X286713Y411213D02*
D03*
Y414213D02*
D03*
Y420213D02*
D03*
Y417213D02*
D03*
X251213Y384713D02*
D03*
X254213D02*
D03*
X260213D02*
D03*
X257213D02*
D03*
X224713Y417213D02*
D03*
Y420213D02*
D03*
Y414213D02*
D03*
Y411213D02*
D03*
X331213Y446713D02*
D03*
X334213D02*
D03*
X340213D02*
D03*
X337213D02*
D03*
X366713Y411213D02*
D03*
Y414213D02*
D03*
Y420213D02*
D03*
Y417213D02*
D03*
X331213Y384713D02*
D03*
X334213D02*
D03*
X340213D02*
D03*
X337213D02*
D03*
X304713Y417213D02*
D03*
Y420213D02*
D03*
Y414213D02*
D03*
Y411213D02*
D03*
D27*
X70713Y70713D02*
D03*
X150713D02*
D03*
X230713D02*
D03*
X310713D02*
D03*
X70713Y150713D02*
D03*
X150713D02*
D03*
X230713D02*
D03*
X310713D02*
D03*
X70713Y230713D02*
D03*
X150713D02*
D03*
X230713D02*
D03*
X310713D02*
D03*
X70713Y310713D02*
D03*
X150713D02*
D03*
X230713D02*
D03*
X310713D02*
D03*
X70713Y390713D02*
D03*
X150713D02*
D03*
X230713D02*
D03*
X310713D02*
D03*
D28*
X70713Y80713D02*
D03*
Y90713D02*
D03*
Y100713D02*
D03*
Y110713D02*
D03*
Y120713D02*
D03*
X150713Y80713D02*
D03*
Y90713D02*
D03*
Y100713D02*
D03*
Y110713D02*
D03*
Y120713D02*
D03*
X230713Y80713D02*
D03*
Y90713D02*
D03*
Y100713D02*
D03*
Y110713D02*
D03*
Y120713D02*
D03*
X310713Y80713D02*
D03*
Y90713D02*
D03*
Y100713D02*
D03*
Y110713D02*
D03*
Y120713D02*
D03*
X70713Y160713D02*
D03*
Y170713D02*
D03*
Y180713D02*
D03*
Y190713D02*
D03*
Y200713D02*
D03*
X150713Y160713D02*
D03*
Y170713D02*
D03*
Y180713D02*
D03*
Y190713D02*
D03*
Y200713D02*
D03*
X230713Y160713D02*
D03*
Y170713D02*
D03*
Y180713D02*
D03*
Y190713D02*
D03*
Y200713D02*
D03*
X310713Y160713D02*
D03*
Y170713D02*
D03*
Y180713D02*
D03*
Y190713D02*
D03*
Y200713D02*
D03*
X70713Y240713D02*
D03*
Y250713D02*
D03*
Y260713D02*
D03*
Y270713D02*
D03*
Y280713D02*
D03*
X150713Y240713D02*
D03*
Y250713D02*
D03*
Y260713D02*
D03*
Y270713D02*
D03*
Y280713D02*
D03*
X230713Y240713D02*
D03*
Y250713D02*
D03*
Y260713D02*
D03*
Y270713D02*
D03*
Y280713D02*
D03*
X310713Y240713D02*
D03*
Y250713D02*
D03*
Y260713D02*
D03*
Y270713D02*
D03*
Y280713D02*
D03*
X70713Y320713D02*
D03*
Y330713D02*
D03*
Y340713D02*
D03*
Y350713D02*
D03*
Y360713D02*
D03*
X150713Y320713D02*
D03*
Y330713D02*
D03*
Y340713D02*
D03*
Y350713D02*
D03*
Y360713D02*
D03*
X230713Y320713D02*
D03*
Y330713D02*
D03*
Y340713D02*
D03*
Y350713D02*
D03*
Y360713D02*
D03*
X310713Y320713D02*
D03*
Y330713D02*
D03*
Y340713D02*
D03*
Y350713D02*
D03*
Y360713D02*
D03*
X70713Y400713D02*
D03*
Y410713D02*
D03*
Y420713D02*
D03*
Y430713D02*
D03*
Y440713D02*
D03*
X150713Y400713D02*
D03*
Y410713D02*
D03*
Y420713D02*
D03*
Y430713D02*
D03*
Y440713D02*
D03*
X230713Y400713D02*
D03*
Y410713D02*
D03*
Y420713D02*
D03*
Y430713D02*
D03*
Y440713D02*
D03*
X310713Y400713D02*
D03*
Y410713D02*
D03*
Y420713D02*
D03*
Y430713D02*
D03*
Y440713D02*
D03*
M02*
