%FSLAX25Y25*%
%MOIN*%
G70*
G01*
G75*
G04 Layer_Color=8388736*
%ADD10C,0.03937*%
%ADD11R,0.19685X0.13780*%
%ADD12R,0.02756X0.03543*%
%ADD13R,0.01969X0.01575*%
%ADD14R,0.03600X0.03600*%
%ADD15C,0.01000*%
%ADD16R,0.05906X0.05906*%
%ADD17C,0.05906*%
%ADD18C,0.03000*%
%ADD19C,0.00600*%
%ADD20C,0.00787*%
%ADD21C,0.04737*%
%ADD22R,0.20485X0.14579*%
%ADD23R,0.03556X0.04343*%
%ADD24R,0.02769X0.02375*%
%ADD25R,0.04400X0.04400*%
%ADD26C,0.00800*%
%ADD27R,0.06706X0.06706*%
%ADD28C,0.06706*%
%ADD29C,0.06299*%
D29*
X302213Y423713D02*
Y449213D01*
X327713D01*
Y462213D01*
X289213D02*
X327713D01*
X263713D02*
X289213D01*
X263713Y449213D02*
Y462213D01*
Y449213D02*
X289213D01*
Y423713D02*
Y449213D01*
Y423713D02*
X302213D01*
X129213D02*
X142213D01*
X129213D02*
Y449213D01*
X103713D02*
X129213D01*
X103713D02*
Y462213D01*
X129213D01*
X167713D01*
Y449213D02*
Y462213D01*
X142213Y449213D02*
X167713D01*
X142213Y423713D02*
Y449213D01*
X222213Y423713D02*
Y449213D01*
X247713D01*
Y462213D01*
X209213D02*
X247713D01*
X183713D02*
X209213D01*
X183713Y449213D02*
Y462213D01*
Y449213D02*
X209213D01*
Y423713D02*
Y449213D01*
Y423713D02*
X222213D01*
X129213Y87713D02*
X142213D01*
Y62213D02*
Y87713D01*
Y62213D02*
X167713D01*
Y49213D02*
Y62213D01*
X142213Y49213D02*
X167713D01*
X103713D02*
X142213D01*
X103713D02*
Y62213D01*
X129213D01*
Y87713D01*
X209213Y62213D02*
Y87713D01*
X183713Y62213D02*
X209213D01*
X183713Y49213D02*
Y62213D01*
Y49213D02*
X222213D01*
X247713D01*
Y62213D01*
X222213D02*
X247713D01*
X222213D02*
Y87713D01*
X209213D02*
X222213D01*
X289213Y62213D02*
Y87713D01*
X263713Y62213D02*
X289213D01*
X263713Y49213D02*
Y62213D01*
Y49213D02*
X302213D01*
X327713D01*
Y62213D01*
X302213D02*
X327713D01*
X302213D02*
Y87713D01*
X289213D02*
X302213D01*
X343713Y129213D02*
Y142213D01*
X369213D01*
Y167713D01*
X382213D01*
Y142213D02*
Y167713D01*
Y103713D02*
Y142213D01*
X369213Y103713D02*
X382213D01*
X369213D02*
Y129213D01*
X343713D02*
X369213D01*
X343713Y209213D02*
X369213D01*
Y183713D02*
Y209213D01*
Y183713D02*
X382213D01*
Y222213D01*
Y247713D01*
X369213D02*
X382213D01*
X369213Y222213D02*
Y247713D01*
X343713Y222213D02*
X369213D01*
X343713Y209213D02*
Y222213D01*
Y369213D02*
Y382213D01*
X369213D01*
Y407713D01*
X382213D01*
Y382213D02*
Y407713D01*
Y343713D02*
Y382213D01*
X369213Y343713D02*
X382213D01*
X369213D02*
Y369213D01*
X343713D02*
X369213D01*
X343713Y289213D02*
X369213D01*
Y263713D02*
Y289213D01*
Y263713D02*
X382213D01*
Y302213D01*
Y327713D01*
X369213D02*
X382213D01*
X369213Y302213D02*
Y327713D01*
X343713Y302213D02*
X369213D01*
X343713Y289213D02*
Y302213D01*
X87713Y209213D02*
Y222213D01*
X62213Y209213D02*
X87713D01*
X62213Y183713D02*
Y209213D01*
X49213Y183713D02*
X62213D01*
X49213D02*
Y209213D01*
Y247713D01*
X62213D01*
Y222213D02*
Y247713D01*
Y222213D02*
X87713D01*
X62213Y142213D02*
X87713D01*
X62213D02*
Y167713D01*
X49213D02*
X62213D01*
X49213Y129213D02*
Y167713D01*
Y103713D02*
Y129213D01*
Y103713D02*
X62213D01*
Y129213D01*
X87713D01*
Y142213D01*
Y289213D02*
Y302213D01*
X62213Y289213D02*
X87713D01*
X62213Y263713D02*
Y289213D01*
X49213Y263713D02*
X62213D01*
X49213D02*
Y289213D01*
Y327713D01*
X62213D01*
Y302213D02*
Y327713D01*
Y302213D02*
X87713D01*
X62213Y382213D02*
X87713D01*
X62213D02*
Y407713D01*
X49213D02*
X62213D01*
X49213Y369213D02*
Y407713D01*
Y343713D02*
Y369213D01*
Y343713D02*
X62213D01*
Y369213D01*
X87713D01*
Y382213D01*
X49213Y423713D02*
X62213D01*
X87713Y449213D02*
Y462213D01*
X62213Y449213D02*
X87713D01*
X62213Y423713D02*
Y449213D01*
X49213Y423713D02*
Y462213D01*
X87713D01*
X343713Y449213D02*
Y462213D01*
X369213Y423713D02*
X382213D01*
X369213D02*
Y449213D01*
X343713D02*
X369213D01*
X343713Y462213D02*
X382213D01*
Y423713D02*
Y462213D01*
X369213Y87713D02*
X382213D01*
X343713Y49213D02*
Y62213D01*
X369213D01*
Y87713D01*
X382213Y49213D02*
Y87713D01*
X343713Y49213D02*
X382213D01*
X49213D02*
Y87713D01*
Y49213D02*
X87713D01*
X62213Y62213D02*
X87713D01*
X62213D02*
Y87713D01*
X49213D02*
X62213D01*
X87713Y49213D02*
Y62213D01*
X142213Y302213D02*
X167713D01*
X142213D02*
Y327713D01*
X129213D02*
X142213D01*
X129213Y302213D02*
Y327713D01*
X103713Y302213D02*
X129213D01*
X103713Y289213D02*
Y302213D01*
Y289213D02*
X129213D01*
Y263713D02*
Y289213D01*
Y263713D02*
X142213D01*
Y289213D01*
X167713D01*
Y302213D01*
X247713Y289213D02*
Y302213D01*
X222213Y289213D02*
X247713D01*
X222213Y263713D02*
Y289213D01*
X209213Y263713D02*
X222213D01*
X209213D02*
Y289213D01*
X183713D02*
X209213D01*
X183713D02*
Y302213D01*
X209213D01*
Y327713D01*
X222213D01*
Y302213D02*
Y327713D01*
Y302213D02*
X247713D01*
X327713Y289213D02*
Y302213D01*
X302213Y289213D02*
X327713D01*
X302213Y263713D02*
Y289213D01*
X289213Y263713D02*
X302213D01*
X289213D02*
Y289213D01*
X263713D02*
X289213D01*
X263713D02*
Y302213D01*
X289213D01*
Y327713D01*
X302213D01*
Y302213D02*
Y327713D01*
Y302213D02*
X327713D01*
X302213Y382213D02*
X327713D01*
X302213D02*
Y407713D01*
X289213D02*
X302213D01*
X289213Y382213D02*
Y407713D01*
X263713Y382213D02*
X289213D01*
X263713Y369213D02*
Y382213D01*
Y369213D02*
X289213D01*
Y343713D02*
Y369213D01*
Y343713D02*
X302213D01*
Y369213D01*
X327713D01*
Y382213D01*
X222213D02*
X247713D01*
X222213D02*
Y407713D01*
X209213D02*
X222213D01*
X209213Y382213D02*
Y407713D01*
X183713Y382213D02*
X209213D01*
X183713Y369213D02*
Y382213D01*
Y369213D02*
X209213D01*
Y343713D02*
Y369213D01*
Y343713D02*
X222213D01*
Y369213D01*
X247713D01*
Y382213D01*
X167713Y369213D02*
Y382213D01*
X142213Y369213D02*
X167713D01*
X142213Y343713D02*
Y369213D01*
X129213Y343713D02*
X142213D01*
X129213D02*
Y369213D01*
X103713D02*
X129213D01*
X103713D02*
Y382213D01*
X129213D01*
Y407713D01*
X142213D01*
Y382213D02*
Y407713D01*
Y382213D02*
X167713D01*
X142213Y222213D02*
X167713D01*
X142213D02*
Y247713D01*
X129213D02*
X142213D01*
X129213Y222213D02*
Y247713D01*
X103713Y222213D02*
X129213D01*
X103713Y209213D02*
Y222213D01*
Y209213D02*
X129213D01*
Y183713D02*
Y209213D01*
Y183713D02*
X142213D01*
Y209213D01*
X167713D01*
Y222213D01*
X247713Y209213D02*
Y222213D01*
X222213Y209213D02*
X247713D01*
X222213Y183713D02*
Y209213D01*
X209213Y183713D02*
X222213D01*
X209213D02*
Y209213D01*
X183713D02*
X209213D01*
X183713D02*
Y222213D01*
X209213D01*
Y247713D01*
X222213D01*
Y222213D02*
Y247713D01*
Y222213D02*
X247713D01*
X327713Y209213D02*
Y222213D01*
X302213Y209213D02*
X327713D01*
X302213Y183713D02*
Y209213D01*
X289213Y183713D02*
X302213D01*
X289213D02*
Y209213D01*
X263713D02*
X289213D01*
X263713D02*
Y222213D01*
X289213D01*
Y247713D01*
X302213D01*
Y222213D02*
Y247713D01*
Y222213D02*
X327713D01*
X302213Y142213D02*
X327713D01*
X302213D02*
Y167713D01*
X289213D02*
X302213D01*
X289213Y142213D02*
Y167713D01*
X263713Y142213D02*
X289213D01*
X263713Y129213D02*
Y142213D01*
Y129213D02*
X289213D01*
Y103713D02*
Y129213D01*
Y103713D02*
X302213D01*
Y129213D01*
X327713D01*
Y142213D01*
X222213D02*
X247713D01*
X222213D02*
Y167713D01*
X209213D02*
X222213D01*
X209213Y142213D02*
Y167713D01*
X183713Y142213D02*
X209213D01*
X183713Y129213D02*
Y142213D01*
Y129213D02*
X209213D01*
Y103713D02*
Y129213D01*
Y103713D02*
X222213D01*
Y129213D01*
X247713D01*
Y142213D01*
X167713Y129213D02*
Y142213D01*
X142213Y129213D02*
X167713D01*
X142213Y103713D02*
Y129213D01*
X129213Y103713D02*
X142213D01*
X129213D02*
Y129213D01*
X103713D02*
X129213D01*
X103713D02*
Y142213D01*
X129213D01*
Y167713D01*
X142213D01*
Y142213D02*
Y167713D01*
Y142213D02*
X167713D01*
M02*
